<svg width="40" height="24" viewBox="0 0 40 24" fill="none" xmlns="http://www.w3.org/2000/svg">
<path d="M39.0878 13.0607C39.6736 12.4749 39.6736 11.5251 39.0878 10.9393L29.5419 1.3934C28.9561 0.807611 28.0063 0.807611 27.4206 1.3934C26.8348 1.97919 26.8348 2.92893 27.4206 3.51472L35.9058 12L27.4206 20.4853C26.8348 21.0711 26.8348 22.0208 27.4206 22.6066C28.0063 23.1924 28.9561 23.1924 29.5419 22.6066L39.0878 13.0607ZM0.973145 13.5H38.0272V10.5H0.973145V13.5Z" fill="white"/>
<path d="M39.0878 13.0607C39.6736 12.4749 39.6736 11.5251 39.0878 10.9393L29.5419 1.3934C28.9561 0.807611 28.0063 0.807611 27.4206 1.3934C26.8348 1.97919 26.8348 2.92893 27.4206 3.51472L35.9058 12L27.4206 20.4853C26.8348 21.0711 26.8348 22.0208 27.4206 22.6066C28.0063 23.1924 28.9561 23.1924 29.5419 22.6066L39.0878 13.0607ZM0.973145 13.5H38.0272V10.5H0.973145V13.5Z" fill="white"/>
</svg>
