<svg width="40" height="24" viewBox="0 0 40 24" fill="none" xmlns="http://www.w3.org/2000/svg">
<path d="M0.93928 10.9393C0.353495 11.5251 0.353495 12.4749 0.93928 13.0607L10.4852 22.6066C11.071 23.1924 12.0208 23.1924 12.6065 22.6066C13.1923 22.0208 13.1923 21.0711 12.6065 20.4853L4.12126 12L12.6065 3.51472C13.1923 2.92893 13.1923 1.97919 12.6065 1.3934C12.0208 0.807612 11.071 0.807612 10.4852 1.3934L0.93928 10.9393ZM39.054 10.5L1.99994 10.5V13.5L39.054 13.5V10.5Z" fill="white"/>
<path d="M0.93928 10.9393C0.353495 11.5251 0.353495 12.4749 0.93928 13.0607L10.4852 22.6066C11.071 23.1924 12.0208 23.1924 12.6065 22.6066C13.1923 22.0208 13.1923 21.0711 12.6065 20.4853L4.12126 12L12.6065 3.51472C13.1923 2.92893 13.1923 1.97919 12.6065 1.3934C12.0208 0.807612 11.071 0.807612 10.4852 1.3934L0.93928 10.9393ZM39.054 10.5L1.99994 10.5V13.5L39.054 13.5V10.5Z" fill="white"/>
</svg>
