<svg width="424" height="343" viewBox="0 0 424 343" fill="none" xmlns="http://www.w3.org/2000/svg">
<path d="M168.215 337.69C264.207 354.252 313.742 321.099 313.993 320.113C316.681 318.531 319.393 316.968 321.937 315.173C325.984 312.317 329.928 309.311 333.863 306.299C335.802 304.814 337.697 303.253 339.469 301.575C340.743 300.369 341.682 298.814 342.941 297.589C345.83 294.777 348.936 292.183 351.748 289.299C356.798 284.121 361.769 278.86 366.635 273.509C370.567 269.186 374.354 264.727 378.097 260.238C380.698 257.117 383.117 253.846 385.611 250.637C387.687 247.965 389.94 245.406 391.775 242.578C393.944 239.234 395.842 235.702 397.687 232.163C399.587 228.519 401.445 224.838 403.025 221.049C404.916 216.514 407.447 212.2 407.649 207.044C407.813 202.861 408.536 198.702 408.778 194.518C409.063 189.6 408.477 184.719 407.6 179.878C406.843 175.698 405.759 171.588 403.703 167.868C401.534 163.945 399.181 160.107 396.66 156.401C393.634 151.951 390.019 148.024 385.615 144.82C381.504 141.829 377.025 139.583 372.353 137.694C367.985 135.927 363.539 134.355 359.155 132.628C356.639 131.638 354.192 130.472 351.686 129.455C347.623 127.807 343.495 126.313 339.471 124.577C333.196 121.871 327.639 118.142 323.06 112.964C320.078 109.593 316.838 106.447 313.678 103.236C310.569 100.076 307.384 96.9888 304.292 93.8114C302.995 92.4777 301.958 90.8812 300.612 89.6049C298.622 87.7173 296.487 85.9784 294.367 84.2325C292.271 82.5063 290.295 80.5331 287.954 79.2279C282.777 76.342 277.639 73.3471 271.861 71.6572C266.843 70.1896 261.956 68.409 256.732 67.545C251.335 66.6526 245.978 65.8268 240.505 65.8331C233.488 65.8413 226.471 65.8157 219.454 65.849C217.729 65.8571 215.981 65.8952 214.283 66.1654C209.708 66.8931 205.145 67.7028 200.596 68.5774C196.965 69.2754 193.357 70.0942 189.748 70.9018L189.621 70.9302C186.99 71.5189 184.356 72.1082 181.757 72.8175C177.228 74.0531 172.718 75.3576 168.215 76.683C162.064 78.4934 156.602 82.0374 150.364 83.6952C147.043 84.5777 143.845 85.9737 140.657 87.2972C135.187 89.5686 129.752 91.9276 124.336 94.3252C121.816 95.4403 119.455 96.9464 116.882 97.8985C111.698 99.8173 106.859 102.38 102.279 105.406C98.5222 107.888 95.012 110.74 91.2902 113.278C86.089 116.824 81.1461 120.652 77.2044 125.606C74.3818 129.154 71.4154 132.634 69.013 136.458C65.6188 141.861 62.5101 147.464 59.6071 153.149C56.8932 158.463 54.5494 163.971 52.1527 169.442C50.5813 173.029 49.0162 176.639 47.7919 180.352C46.3661 184.676 45.4326 189.161 44.0644 193.506C42.9703 196.981 42.5674 200.5 42.6066 204.1C42.6172 205.069 42.8715 206.035 42.8839 207.003C43.0047 216.452 43.071 225.901 43.2235 235.349C43.2508 237.035 43.5508 238.724 43.816 240.397C44.2798 243.324 44.7919 246.245 45.326 249.16C45.7716 251.593 46.0789 254.075 46.7947 256.429C48.8514 263.194 51.4967 269.736 55.0161 275.886C57.3337 279.935 59.7389 283.937 62.2042 287.898C62.9718 289.131 64.0753 290.153 65.006 291.287C66.8898 293.583 68.3541 295.566 70.6625 298.168C97.9395 328.918 136.56 332.228 168.215 337.69Z" fill="#64FCD9"/>
<path d="M33.6529 251.616C31.6984 247.016 30.1655 242.455 29.3758 237.628C28.7485 233.794 27.7197 230.026 27.0198 226.202C26.6438 224.146 26.6511 222.024 26.3684 219.948C25.8823 216.378 25.3055 212.82 24.7651 209.257C24.4986 207.501 24.1488 205.752 23.9741 203.986C23.3389 197.566 22.8376 191.138 23.0492 184.676C23.1607 181.268 23.0325 177.834 23.4094 174.457C23.8866 170.181 24.8026 165.955 25.4624 161.697C25.9279 158.693 26.1762 155.653 26.7096 152.663C27.6132 147.599 29.1611 142.728 31.7741 138.261C32.9224 136.299 34.2252 134.426 35.4732 132.522C36.3163 131.236 38.9584 130.111 40.0957 130.354C41.6575 130.687 42.222 131.837 42.0823 133.108C41.812 135.567 41.4049 138.038 40.7532 140.422C39.406 145.35 37.6914 150.182 36.4546 155.135C35.5527 158.747 35.1552 162.486 34.5664 166.174C33.8399 170.724 33.1304 175.278 32.4532 179.836C32.2736 181.044 32.1981 182.273 32.1465 183.495C32.0205 186.481 31.9488 189.469 31.8311 192.456C31.7532 194.434 31.4778 196.418 31.5635 198.387C31.7712 203.163 32.1004 207.934 32.4548 212.702C32.686 215.812 32.9852 218.921 33.3696 222.016C33.6763 224.486 34.1609 226.934 34.5608 229.393C34.9686 231.9 35.2763 234.429 35.8009 236.911C36.2763 239.162 36.9196 241.383 37.6035 243.581C39.3831 249.302 41.1862 255.016 43.0561 260.708C44.4559 264.969 45.9851 269.187 47.4346 273.432C48.0726 275.301 47.6733 276.392 46.2346 276.398C45.0884 276.403 44.1614 275.674 43.6548 274.584C43.2228 273.653 42.8628 272.69 42.4337 271.758C40.4225 267.391 38.3568 263.048 36.3964 258.659C35.3891 256.403 34.5617 254.067 33.6529 251.616Z" fill="#64FCD9"/>
<path d="M384.521 94.8511C380.447 95.8608 376.549 96.9874 372.593 97.8407C369.776 98.4482 366.827 99.2248 364.031 98.9554C360.567 98.6217 356.892 99.6743 353.63 97.8564C351.483 96.6599 349.384 95.3429 347.402 93.89C343.702 91.1765 341.267 87.4269 339.268 83.37C337.115 79.0008 335.758 74.3681 334.866 69.6013C334.527 67.7924 334.183 65.9203 334.298 64.1059C334.471 61.3814 335.007 58.6758 335.459 55.9742C336.021 52.6205 337.207 49.4662 338.621 46.3827C340.564 42.1442 344.047 39.3536 347.689 36.7534C351.952 33.7096 356.609 31.3245 361.62 29.8402C364.58 28.9636 367.72 28.648 370.798 28.2287C376.751 27.4181 382.517 28.9164 388.166 30.3096C396.262 32.3061 400.9 38.2435 403.235 45.9222C404.514 50.1275 405.152 54.5313 406.015 58.8583C406.491 61.2508 407.038 63.6583 407.176 66.0804C407.287 68.0485 406.982 70.0769 406.602 72.0284C405.861 75.8475 404.236 79.3315 402.096 82.5716C400.351 85.2149 397.852 87.1052 395.458 89.0878C392.26 91.7369 388.485 93.3359 384.521 94.8511Z" fill="#64FCD9"/>
<path d="M399.386 124.015C398.418 122.745 397.362 121.633 396.698 120.322C396.323 119.581 396.331 118.417 396.628 117.614C397.153 116.19 398.651 116.272 399.739 116.588C400.876 116.918 401.99 117.651 402.876 118.466C407.594 122.807 411.747 127.68 415.266 133.014C418.243 137.526 420.57 142.435 421.397 147.866C421.938 151.412 422.413 154.987 422.595 158.566C422.935 165.238 423.197 171.922 423.192 178.601C423.188 184.272 422.231 189.833 419.914 195.088C419.151 196.82 416.591 199.054 414.449 198.929C412.765 198.832 411.125 197.608 411.168 195.937C411.232 193.507 411.521 191.074 411.853 188.662C412.238 185.867 412.813 183.099 413.233 180.309C413.592 177.92 414.061 175.519 414.106 173.116C414.179 169.124 414.19 165.101 413.781 161.137C413.397 157.41 412.533 153.72 411.705 150.053C410.724 145.711 409.702 141.341 407.466 137.434C404.89 132.934 402.138 128.534 399.386 124.015Z" fill="#64FCD9"/>
<path d="M61.3137 107.961C60.0768 109.364 58.8641 110.651 57.7647 112.028C55.0458 115.433 52.3868 118.886 49.686 122.306C48.8966 123.306 47.8113 123.936 46.6096 123.333C45.417 122.735 45.5808 121.416 45.6462 120.286C45.7973 117.673 47.1287 115.495 48.5792 113.489C51.6237 109.279 54.8283 105.17 58.6217 101.592C62.587 97.8529 66.7582 94.3662 71.3218 91.3418C73.7783 89.7138 76.1412 87.9862 79.1084 87.4677C79.7641 87.3531 80.9347 87.4034 81.078 87.7275C81.3618 88.3686 81.3806 89.4599 80.9953 89.9957C80.1568 91.1618 79.0446 92.1511 77.9562 93.1131C76.056 94.7926 74.0464 96.3492 72.1598 98.0431C68.5411 101.292 64.9765 104.601 61.3137 107.961Z" fill="#64FCD9"/>
<path opacity="0.1" d="M204.915 283.561C233.5 267.74 266.152 262.689 298.061 269.476C343.282 279.089 400.109 275.319 411.101 201.158C429.9 74.4954 351.119 41.0641 351.119 41.0641C351.119 41.0641 298.729 36.676 267.75 19.9693C223.744 -3.76022 173.446 -6.79094 129.218 13.2937C100.936 26.1241 77.647 44.0013 73.6639 68.5274C62.5379 137.144 80.8112 174.945 46.6278 197.344C12.4444 219.743 41.6567 281.238 67.8739 279.111C94.0912 276.984 153.299 253.628 176.374 280.677C184.576 290.259 194.946 289.08 204.915 283.561Z" fill="#64FCD9"/>
<path d="M379.192 320.945C379.192 320.945 384.532 302.769 378.186 289.391C375.483 283.797 374.668 277.477 375.863 271.381C376.453 268.49 377.307 265.66 378.413 262.925" stroke="#535461" stroke-width="2" stroke-miterlimit="10"/>
<path d="M374.461 254.474C374.461 256.699 378.493 263.161 378.493 263.161C378.493 263.161 382.525 256.703 382.525 254.474C382.525 253.404 382.1 252.377 381.343 251.621C380.587 250.864 379.561 250.439 378.491 250.439C377.421 250.439 376.395 250.864 375.638 251.621C374.882 252.377 374.457 253.404 374.457 254.474H374.461Z" fill="#1F9184"/>
<path d="M367.795 266.814C369.005 268.684 375.903 271.915 375.903 271.915C375.903 271.915 375.779 264.3 374.568 262.431C373.987 261.533 373.073 260.903 372.027 260.68C370.981 260.456 369.889 260.657 368.992 261.238C368.094 261.819 367.464 262.734 367.241 263.779C367.017 264.825 367.218 265.917 367.799 266.814H367.795Z" fill="#1F9184"/>
<path d="M368.084 287.896C370.073 288.897 377.657 288.208 377.657 288.208C377.657 288.208 373.705 281.697 371.715 280.695C371.242 280.457 370.727 280.314 370.199 280.274C369.671 280.235 369.141 280.3 368.638 280.466C368.135 280.632 367.669 280.895 367.268 281.24C366.867 281.586 366.538 282.007 366.299 282.48C366.061 282.953 365.918 283.468 365.878 283.996C365.839 284.524 365.904 285.055 366.07 285.558C366.235 286.06 366.499 286.526 366.844 286.927C367.19 287.328 367.611 287.658 368.084 287.896Z" fill="#1F9184"/>
<path d="M371.897 303.802C373.678 305.137 381.279 305.724 381.279 305.724C381.279 305.724 378.484 298.644 376.695 297.309C376.269 296.994 375.786 296.766 375.272 296.637C374.758 296.509 374.224 296.484 373.7 296.562C373.176 296.64 372.673 296.821 372.219 297.094C371.765 297.367 371.369 297.726 371.054 298.152C370.739 298.578 370.511 299.061 370.383 299.575C370.255 300.089 370.229 300.623 370.308 301.147C370.386 301.671 370.567 302.174 370.839 302.628C371.112 303.082 371.472 303.478 371.897 303.793V303.802Z" fill="#1F9184"/>
<path d="M384.367 272.346C382.77 273.899 375.324 275.506 375.324 275.506C375.324 275.506 377.149 268.114 378.747 266.561C379.514 265.815 380.546 265.405 381.615 265.421C382.685 265.436 383.704 265.876 384.45 266.643C385.195 267.41 385.605 268.442 385.59 269.512C385.574 270.581 385.135 271.601 384.367 272.346Z" fill="#1F9184"/>
<path d="M388.583 290.998C386.593 291.999 379.01 291.309 379.01 291.309C379.01 291.309 382.962 284.799 384.951 283.797C385.906 283.316 387.013 283.233 388.029 283.568C389.044 283.902 389.886 284.627 390.367 285.582C390.849 286.537 390.931 287.644 390.597 288.659C390.262 289.675 389.537 290.516 388.583 290.998Z" fill="#1F9184"/>
<path d="M28.4388 311.105C28.4388 311.105 39.8629 272.311 26.2982 243.762C20.6017 231.777 18.7325 218.328 21.3449 205.323C22.596 199.151 24.4105 193.105 26.7654 187.264" stroke="#535461" stroke-width="2" stroke-miterlimit="10"/>
<path d="M18.3413 169.217C18.3413 173.971 26.9484 187.758 26.9484 187.758C26.9484 187.758 35.5554 173.962 35.5554 169.217C35.5554 166.935 34.6486 164.746 33.0345 163.131C31.4203 161.517 29.2311 160.61 26.9484 160.61C24.6656 160.61 22.4764 161.517 20.8623 163.131C19.2481 164.746 18.3413 166.935 18.3413 169.217Z" fill="#1F9184"/>
<path d="M4.11331 195.55C6.69898 199.556 21.4164 206.436 21.4164 206.436C21.4164 206.436 21.1494 190.183 18.5637 186.196C17.9636 185.218 17.174 184.37 16.2413 183.701C15.3085 183.033 14.2516 182.558 13.1326 182.304C12.0136 182.05 10.8551 182.022 9.72521 182.222C8.59535 182.423 7.51696 182.847 6.55344 183.47C5.58992 184.093 4.76073 184.903 4.11463 185.851C3.46854 186.799 3.01859 187.867 2.79124 188.992C2.56389 190.117 2.56373 191.275 2.79077 192.4C3.01781 193.525 3.46748 194.593 4.11331 195.542V195.55Z" fill="#1F9184"/>
<path d="M4.73171 240.553C8.96403 242.693 25.1634 241.234 25.1634 241.234C25.1634 241.234 16.7077 227.34 12.4843 225.212C11.475 224.703 10.3753 224.398 9.24799 224.314C8.1207 224.23 6.9879 224.369 5.91426 224.722C3.74594 225.437 1.95023 226.983 0.922175 229.022C-0.105881 231.06 -0.282075 233.424 0.432351 235.592C1.14678 237.76 2.69331 239.556 4.73171 240.584V240.553Z" fill="#1F9184"/>
<path d="M12.8717 274.496C16.6945 277.322 32.8984 278.599 32.8984 278.599C32.8984 278.599 26.9349 263.468 23.1076 260.655C21.2722 259.298 18.9727 258.725 16.7151 259.063C14.4575 259.401 12.4266 260.622 11.0693 262.458C9.71189 264.293 9.13922 266.592 9.47724 268.85C9.81526 271.108 11.0363 273.139 12.8717 274.496Z" fill="#1F9184"/>
<path d="M39.4893 207.357C36.0803 210.668 20.1924 214.1 20.1924 214.1C20.1924 214.1 24.082 198.319 27.491 195.007C28.3019 194.218 29.2603 193.597 30.3114 193.178C31.3625 192.76 32.4858 192.552 33.6171 192.568C34.7484 192.583 35.8655 192.821 36.9048 193.269C37.944 193.716 38.885 194.363 39.674 195.174C40.4629 195.985 41.0845 196.944 41.5031 197.995C41.9217 199.046 42.1292 200.169 42.1137 201.3C42.0982 202.432 41.86 203.549 41.4128 204.588C40.9655 205.627 40.318 206.568 39.5071 207.357H39.4893Z" fill="#1F9184"/>
<path d="M48.5011 247.175C44.2554 249.316 28.0693 247.838 28.0693 247.838C28.0693 247.838 36.5251 233.944 40.7485 231.817C42.7869 230.789 45.1502 230.612 47.3185 231.327C49.4868 232.041 51.2825 233.588 52.3106 235.626C53.3387 237.665 53.5149 240.028 52.8004 242.196C52.086 244.365 50.5395 246.16 48.5011 247.188V247.175Z" fill="#1F9184"/>
<path d="M51.9506 287.073C48.1277 289.899 31.9238 291.176 31.9238 291.176C31.9238 291.176 37.8873 276.045 41.7147 273.232C43.5501 271.875 45.8495 271.302 48.1071 271.64C50.3647 271.978 52.3956 273.199 53.753 275.034C55.1104 276.87 55.683 279.169 55.345 281.427C55.007 283.684 53.786 285.715 51.9506 287.073Z" fill="#1F9184"/>
<path d="M359.722 164.936C360.811 164.41 361.723 163.578 362.347 162.542C360.829 162.071 359.353 161.475 357.933 160.762L359.21 155.199C359.324 154.679 359.334 154.143 359.239 153.619C359.144 153.096 358.946 152.597 358.656 152.151C358.366 151.706 357.99 151.322 357.55 151.023C357.111 150.724 356.616 150.516 356.095 150.41L354.581 150.076C353.532 149.839 352.431 150.023 351.515 150.589C350.6 151.155 349.943 152.057 349.686 153.103L349.406 154.322C347.321 152.075 345.613 149.505 344.35 146.712C343.905 145.872 343.674 144.935 343.678 143.984C343.763 142.849 344.435 141.852 344.982 140.869C346.852 137.455 347.463 133.494 346.709 129.676C346.019 126.258 344.27 123.147 343.148 119.845C340.932 113.306 341.185 106.183 343.86 99.8181C345.405 96.1777 347.777 92.4082 346.78 88.5898C345.672 84.3308 340.994 82.1679 336.989 80.1341C332.984 78.1002 328.742 74.5355 329.575 70.2141C329.837 68.8523 330.607 67.5172 330.296 66.1687C329.877 64.3886 327.808 63.4985 326.006 62.9467C321.186 61.4157 316.295 59.8714 311.23 59.6356C307.074 59.4442 302.73 60.2453 299.268 62.4082C298.241 62.9709 297.285 63.6536 296.419 64.442C295.63 65.2615 294.787 66.0272 293.896 66.7339C292.071 67.6552 289.891 67.535 287.83 67.7308C285.455 67.9496 283.162 68.7109 281.128 69.956C279.879 70.616 278.751 71.4845 277.794 72.5239C275.458 75.1051 274.43 78.888 275.569 82.1412C275.802 82.7851 276.121 83.3944 276.517 83.9525C274.751 86.8492 273.818 90.177 273.82 93.5698C273.82 103.218 281.239 111.171 290.812 112.306C291.373 114.455 291.916 116.707 292.338 118.795C292.224 118.897 292.104 118.992 291.978 119.079C291.19 119.458 290.291 119.698 289.468 120.023C288.86 120.262 288.277 120.56 287.728 120.913C283.656 123.107 281.568 127.86 279.886 132.204C281.043 131.994 282.191 131.759 283.331 131.478C283.273 131.621 283.228 131.759 283.188 131.888C282.018 135.893 275.565 158.207 275.565 158.207L276.936 155.261C276.991 155.681 276.921 156.108 276.735 156.489C276.166 157.598 277.256 156.792 278.987 155.194C278.987 155.288 279.009 155.341 279.076 155.346C275.008 161.986 262.2 182.72 255.827 191.131C247.91 192.195 242.142 193.107 242.142 193.107C240.889 193.118 239.656 193.423 238.542 193.997C236.979 194.8 235.661 196.009 234.726 197.497C233.791 198.984 233.274 200.696 233.228 202.453L232.783 216.547C232.783 216.547 229.392 233.499 229.459 243.152C229.407 244.783 229.538 246.414 229.85 248.016C230.383 250.435 230.644 252.905 230.629 255.381C230.606 258.283 230.346 261.178 229.85 264.037C229.873 264.06 229.913 264.082 229.939 264.104C229.886 264.429 229.85 264.607 229.85 264.607C230.496 265.235 232.472 265.693 234.995 266.022C234.283 269.983 231.666 274.033 223.989 274.331C212.774 274.754 210.447 276.721 210.002 277.731C209.904 277.917 209.876 278.132 209.922 278.337C210.509 285.773 227.216 284.914 232.2 285.204C232.935 285.222 233.67 285.155 234.39 285.003C234.835 284.923 235.28 284.821 235.756 284.701C236.953 284.398 238.297 283.971 239.699 283.463C241.381 282.854 243.153 282.128 244.87 281.341C245.729 280.949 246.57 280.544 247.385 280.135C247.928 279.859 248.453 279.583 248.96 279.307C251.502 277.927 253.562 276.548 254.474 275.475C254.559 275.377 254.636 275.273 254.706 275.163C254.728 275.123 254.75 275.083 254.773 275.043C254.795 275.003 254.853 274.901 254.888 274.825C254.924 274.75 254.933 274.723 254.951 274.669C254.968 274.616 255 274.536 255.022 274.469C255.044 274.402 255.057 274.349 255.075 274.287C255.093 274.224 255.102 274.162 255.115 274.1C255.129 274.037 255.142 273.962 255.151 273.891C255.16 273.819 255.151 273.788 255.151 273.735C255.382 271.336 253.58 268.074 252.116 265.875V256.583C252.116 256.583 254.19 234.701 254.15 225.043C254.21 223.536 254.118 222.027 253.874 220.539C253.753 220.078 253.679 219.605 253.651 219.129C253.653 218.387 253.909 217.669 254.376 217.093C254.843 216.517 255.494 216.119 256.219 215.964C261.435 213.25 274.911 214.358 284.986 215.711C276.232 217.046 256.651 219.351 256.651 221.977V228.207C256.668 229.719 257.249 231.171 258.281 232.276C259.312 233.382 260.72 234.062 262.227 234.184V340.406H269.196V234.215H331.132V340.406H338.102V232.996C339.773 232.138 341.177 230.838 342.16 229.237C343.144 227.636 343.669 225.796 343.678 223.917V222.373L356.651 166.298C357.735 165.995 358.769 165.536 359.722 164.936ZM333.865 221.541C333.455 219.761 330.563 218.181 325.952 216.952C333.776 213.116 335.427 205.506 335.369 199.596C335.383 197.591 335.218 195.59 334.875 193.615C335.37 193.197 335.749 192.658 335.973 192.05C336.197 191.442 336.258 190.787 336.152 190.148C336.252 188.972 335.996 187.794 335.418 186.765C330.79 177.42 330.078 172.079 329.98 164.816C330.9 165.675 331.961 166.369 333.117 166.868C335.85 168.047 338.903 168.256 341.898 168.23C343.344 168.23 344.791 168.145 346.237 168.034L333.865 221.541ZM286.157 165.613C286.531 166.316 286.758 166.761 286.758 166.761L288.035 165.63C294.145 165.84 295.454 168.795 295.64 170.757C295.624 170.952 295.594 171.145 295.551 171.336L290.273 186.783C281.11 185.372 277.105 187.829 275.974 188.746C273.148 189.013 270.273 189.324 267.443 189.636C273.126 182.239 280.959 172.253 286.157 165.613Z" fill="#5BDECE"/>
<path d="M271.376 146.2C271.376 146.2 250.62 181.194 245.755 185.84C245.755 185.84 224.999 207.38 235.551 205.866C236.325 205.755 251.514 192.916 252.4 190.815C253.285 188.715 282.008 151.403 282.008 151.403L277.914 147.633L271.376 146.2Z" fill="#F8BDC5"/>
<path d="M328.649 334.977H335.231V230.197H328.649V334.977Z" fill="#40414D"/>
<path d="M262.836 334.977H269.418V230.197H262.836V334.977Z" fill="#40414D"/>
<path d="M257.567 220.317C257.567 224.322 284.923 227.558 301.652 227.558C318.381 227.558 331.279 224.322 331.279 220.317C331.279 216.312 318.373 213.076 301.648 213.076C284.923 213.076 257.567 216.312 257.567 220.317Z" fill="#F6C6CD"/>
<path d="M332.485 232.168H262.24C261.625 232.171 261.015 232.053 260.445 231.819C259.876 231.585 259.358 231.242 258.922 230.808C258.486 230.373 258.139 229.857 257.903 229.289C257.667 228.72 257.545 228.111 257.545 227.495V220.317H340.496V224.158C340.496 226.282 339.652 228.32 338.15 229.822C336.648 231.324 334.61 232.168 332.485 232.168Z" fill="#40414D"/>
<path d="M332.421 230.929L328.922 230.139L346.358 152.892C346.54 152.086 347.035 151.385 347.733 150.944C348.432 150.503 349.277 150.357 350.083 150.539L353.013 151.201C353.819 151.383 354.52 151.877 354.961 152.576C355.403 153.274 355.548 154.119 355.366 154.925L339.17 226.676C338.841 228.134 337.947 229.401 336.683 230.199C335.42 230.997 333.891 231.261 332.434 230.932L332.421 230.929Z" fill="#40414D"/>
<path d="M252.4 260.473C252.4 260.473 259.045 268.782 256.277 272.106C253.508 275.431 239.685 281.786 235.231 281.523C230.522 281.247 214.759 282.075 214.185 274.879C214.185 274.879 213.077 271.554 227.478 271.002C241.88 270.451 237.429 255.475 237.429 255.475L252.4 260.473Z" fill="#594C76"/>
<path opacity="0.1" d="M331.59 190.682C331.59 190.682 338.235 213.379 318.297 217.268L296.695 216.16C296.695 216.16 266.232 210.068 257.923 214.5C257.923 214.5 254.599 215.052 255.698 219.485C256.797 223.917 254.038 253.824 254.038 253.824V263.793C254.038 263.793 235.204 263.793 232.992 261.568C232.992 261.568 234.652 252.707 232.992 245.506C231.332 238.305 235.76 215.595 235.76 215.595L236.205 201.95C236.238 200.261 236.72 198.611 237.603 197.17C238.485 195.729 239.735 194.549 241.225 193.752C242.273 193.197 243.439 192.901 244.625 192.889C244.625 192.889 282.289 186.797 295.582 187.905C308.876 189.013 331.59 190.682 331.59 190.682Z" fill="black"/>
<path d="M331.591 190.125C331.591 190.125 338.235 212.822 318.297 216.712L296.695 215.604C296.695 215.604 266.232 209.511 257.923 213.944C257.923 213.944 254.599 214.496 255.698 218.928C256.798 223.361 254.043 253.25 254.043 253.25V263.219C254.043 263.219 235.209 263.219 232.997 260.993C232.997 260.993 234.657 252.133 232.997 244.932C231.337 237.731 235.765 215.021 235.765 215.021L236.21 201.376C236.243 199.687 236.725 198.037 237.608 196.596C238.49 195.155 239.74 193.975 241.23 193.178C242.278 192.623 243.444 192.327 244.63 192.315C244.63 192.315 282.294 186.222 295.587 187.331C308.88 188.439 331.591 190.125 331.591 190.125Z" fill="#8B9CD1"/>
<path d="M294.479 117.571C294.479 117.571 284.51 129.204 283.402 133.08C282.294 136.957 270.108 146.925 270.108 146.925C270.108 146.925 278.969 153.561 277.322 156.894C275.676 160.228 288.938 145.817 288.938 145.817L304.448 123.12L294.479 117.571Z" fill="#1F9184"/>
<path opacity="0.1" d="M294.479 117.571C294.479 117.571 284.51 129.204 283.402 133.08C282.294 136.957 270.108 146.925 270.108 146.925C270.108 146.925 278.969 153.561 277.322 156.894C275.676 160.228 288.938 145.817 288.938 145.817L304.448 123.12L294.479 117.571Z" fill="black"/>
<path d="M287.83 104.277C287.83 104.277 292.815 120.339 292.815 126.431C292.815 132.524 313.86 124.771 313.286 121.447C312.712 118.123 301.101 105.937 300.545 100.975C299.989 96.0131 287.83 104.277 287.83 104.277Z" fill="#F8BDC5"/>
<path opacity="0.1" d="M304.47 115.354C304.47 115.354 323.856 110.37 326.624 138.617C329.392 166.863 324.399 170.188 332.716 187.357C341.034 204.527 276.219 189.582 276.219 189.582C276.219 189.582 279.543 185.706 290.064 187.357L295.048 172.404C295.048 172.404 296.708 165.76 287.296 165.76C277.883 165.76 282.311 146.374 282.311 146.374C282.311 146.374 287.296 129.756 290.064 128.096C292.832 126.436 297.794 116.463 304.47 115.354Z" fill="black"/>
<path d="M304.47 114.246C304.47 114.246 323.856 109.262 326.624 137.508C329.392 165.755 324.399 169.08 332.716 186.249C341.034 203.419 276.219 188.474 276.219 188.474C276.219 188.474 279.543 184.598 290.064 186.249L295.048 171.296C295.048 171.296 296.708 164.651 287.296 164.651C277.883 164.651 282.311 145.265 282.311 145.265C282.311 145.265 287.296 128.648 290.064 126.988C292.832 125.328 297.794 115.354 304.47 114.246Z" fill="#1F9184"/>
<path d="M280.722 153.766C280.722 153.766 259.966 188.759 255.102 193.405C255.102 193.405 234.345 214.945 244.897 213.432C245.671 213.321 260.86 200.481 261.746 198.381C262.632 196.28 291.354 158.968 291.354 158.968L287.26 155.199L280.722 153.766Z" fill="#F8BDC5"/>
<path opacity="0.1" d="M316.081 140.277L286.708 166.863C286.708 166.863 281.185 155.786 279.525 155.786C277.865 155.786 299.463 123.107 299.463 123.107C299.463 123.107 305.004 116.463 308.324 119.783C311.644 123.103 321.617 120.891 316.081 140.277Z" fill="black"/>
<path d="M316.633 139.168L287.26 165.755C287.26 165.755 281.72 154.678 280.06 154.678C278.4 154.678 300.02 121.999 300.02 121.999C300.02 121.999 305.56 115.354 308.88 118.674C312.2 121.994 322.174 119.783 316.633 139.168Z" fill="#1F9184"/>
<path d="M292.814 114.246C302.909 114.246 311.092 106.063 311.092 95.9685C311.092 85.874 302.909 77.6908 292.814 77.6908C282.72 77.6908 274.537 85.874 274.537 95.9685C274.537 106.063 282.72 114.246 292.814 114.246Z" fill="#F8BDC5"/>
<path opacity="0.1" d="M283.927 89.9605C280.62 90.4055 277.287 88.0557 276.192 84.9049C275.097 81.754 276.067 78.0913 278.275 75.5946C280.482 73.098 283.766 71.7006 287.086 71.3757C289.102 71.1799 291.252 71.3223 293.01 70.3165C294.118 69.6845 294.941 68.6609 295.871 67.7887C299.356 64.5043 304.407 63.3116 309.191 63.5341C313.976 63.7566 318.595 65.2564 323.152 66.7384C324.852 67.2902 326.811 68.1135 327.202 69.8537C327.5 71.1621 326.757 72.4571 326.521 73.77C325.738 77.9489 329.766 81.3846 333.526 83.3739C337.287 85.3633 341.719 87.4549 342.765 91.5804C343.704 95.2787 341.466 98.9236 340.006 102.448C337.481 108.621 337.243 115.492 339.334 121.825C340.402 125.021 342.058 128.056 342.707 131.345C343.421 135.037 342.846 138.862 341.079 142.181C340.558 143.152 339.921 144.117 339.846 145.212C339.84 146.131 340.057 147.038 340.478 147.856C342.081 151.456 344.423 154.68 347.35 157.32C350.278 159.959 353.727 161.955 357.474 163.178C356.285 165.332 353.691 166.231 351.297 166.796C347.211 167.756 343.032 168.261 338.836 168.301C336.014 168.327 333.117 168.127 330.54 166.966C327.963 165.804 325.725 163.583 325.24 160.802C324.959 159.191 325.271 157.526 325.07 155.906C324.625 152.257 321.693 149.395 320.62 145.88C319.592 142.52 318.996 142.008 319.392 138.514C319.788 135.021 319.712 131.14 317.434 128.465C315.048 125.662 310.856 125.038 307.26 125.835C303.664 126.632 301.804 125.506 298.519 127.17C292.773 130.094 286.637 132.18 280.3 133.365C282.017 128.817 284.176 123.801 288.68 121.963C289.97 121.438 291.466 121.158 292.342 120.076C293.74 118.35 292.787 115.581 293.993 113.721C295.199 111.861 298.07 111.776 299.721 110.228C301.123 108.892 301.381 106.707 300.838 104.865C300.295 103.022 299.098 101.451 297.888 99.9694C296.816 98.6373 295.72 97.3259 294.599 96.0353C293.554 94.9517 292.68 93.7151 292.009 92.3682C291.63 91.4781 291.701 89.7958 291.083 89.0882C289.516 87.2947 285.836 89.7068 283.927 89.9605Z" fill="black"/>
<path d="M284.599 89.5555C281.292 90.0006 277.959 87.6508 276.864 84.4999C275.769 81.349 276.74 77.6863 278.947 75.1897C281.154 72.693 284.439 71.2956 287.759 70.9707C289.775 70.7749 291.924 70.9173 293.682 69.9115C294.79 69.2795 295.614 68.256 296.544 67.3837C300.029 64.0993 305.08 62.9066 309.864 63.1291C314.648 63.3516 319.268 64.8514 323.825 66.3334C325.525 66.8852 327.483 67.7086 327.875 69.4487C328.173 70.7571 327.43 72.0521 327.194 73.365C326.41 77.5439 330.438 80.9796 334.199 82.969C337.959 84.9583 342.392 87.05 343.438 91.1755C344.377 94.8737 342.138 98.5186 340.678 102.043C338.153 108.216 337.915 115.087 340.006 121.42C341.074 124.616 342.73 127.651 343.38 130.94C344.094 134.632 343.519 138.457 341.751 141.776C341.23 142.747 340.594 143.712 340.518 144.807C340.513 145.726 340.729 146.633 341.15 147.451C342.754 151.051 345.095 154.275 348.023 156.915C350.95 159.554 354.399 161.55 358.146 162.773C356.958 164.927 354.363 165.826 351.969 166.391C347.884 167.351 343.704 167.856 339.508 167.896C336.686 167.922 333.789 167.722 331.212 166.561C328.636 165.399 326.397 163.178 325.912 160.397C325.632 158.786 325.943 157.121 325.743 155.501C325.298 151.852 322.365 148.99 321.292 145.475C320.264 142.115 319.668 141.603 320.064 138.109C320.46 134.616 320.385 130.735 318.106 128.06C315.721 125.257 311.528 124.633 307.932 125.43C304.337 126.227 302.476 125.101 299.192 126.765C293.445 129.689 287.31 131.775 280.972 132.96C282.69 128.412 284.848 123.396 289.352 121.558C290.643 121.033 292.138 120.753 293.015 119.671C294.412 117.945 293.46 115.176 294.666 113.316C295.872 111.456 298.742 111.371 300.393 109.823C301.795 108.487 302.053 106.302 301.51 104.46C300.968 102.617 299.77 101.046 298.56 99.5645C297.489 98.2323 296.393 96.9209 295.271 95.6303C294.239 94.5456 293.378 93.3107 292.717 91.9676C292.338 91.0776 292.409 89.3953 291.791 88.6877C290.189 86.8897 286.508 89.3063 284.599 89.5555Z" fill="#EB6475"/>
<g opacity="0.1">
<path d="M238.061 259.85C238.019 258.376 237.807 256.913 237.429 255.488L237.71 255.582C237.985 256.987 238.103 258.418 238.061 259.85Z" fill="white"/>
<path d="M235.212 280.397C239.663 280.66 253.49 274.305 256.258 270.98C256.621 270.53 256.844 269.984 256.899 269.409C256.979 269.874 256.964 270.351 256.854 270.81C256.743 271.269 256.541 271.701 256.258 272.079C253.49 275.404 239.667 281.759 235.212 281.496C230.504 281.22 214.741 282.048 214.167 274.852C214.125 274.655 214.152 274.449 214.242 274.269C215.511 280.918 230.624 280.139 235.212 280.397Z" fill="white"/>
</g>
<path d="M116.952 283.931C119.623 283.041 123.628 282.026 126.783 282.386C129.783 281.292 136.841 278.435 141.661 274.202C141.521 270.01 141.626 265.814 141.977 261.634C144.443 233.597 138.897 215.132 138.897 215.132C138.897 215.132 134.545 201.038 135.021 189.342C134.741 189.872 134.576 190.188 134.576 190.188C134.193 180.099 130.758 169.658 128.185 163.156C128.086 163.127 127.99 163.092 127.896 163.049L124.972 156.231C124.743 155.834 124.561 155.411 124.429 154.972L123.984 153.89L124.122 153.833C124.078 153.654 124.029 153.468 123.984 153.276C122.146 145.501 120.744 127.063 120.744 127.063C115.818 107.66 127.518 95.6526 127.518 95.6526L147.371 78.5497C147.272 78.772 147.206 79.0073 147.175 79.2484L147.34 79.106C147.62 78.305 147.927 77.3259 148.23 76.24C147.521 75.7388 146.857 75.1774 146.245 74.5622C143.987 72.4291 142.435 69.6576 141.795 66.6182C141.314 64.2551 141.407 61.8207 141.505 59.413L141.835 51.1709C141.849 49.5571 142.013 47.9481 142.324 46.3645C143.824 39.8046 150.526 35.2385 157.251 34.9493C159.391 34.8603 161.528 35.1317 163.659 35.2919C165.391 35.4339 167.13 35.4711 168.866 35.4032C169.064 35.4143 169.26 35.3629 169.427 35.2563C169.58 35.1056 169.668 34.9012 169.672 34.6867C169.706 34.3043 169.662 33.9189 169.543 33.554C169.423 33.1891 169.231 32.8522 168.978 32.5638C168.718 32.3351 168.415 32.1597 168.087 32.0476L168.568 32.1633C168.332 31.9782 168.065 31.8352 167.78 31.7405C169.498 32.1455 171.256 32.5683 172.734 33.5207C173.157 33.7987 173.545 34.1258 173.891 34.4953C174.806 35.2982 175.4 36.4045 175.564 37.6106C176.334 36.8585 177.073 36.0307 177.344 34.9982C177.447 34.5831 177.447 34.1494 177.344 33.7343C177.46 33.8797 177.573 34.028 177.682 34.1793C177.682 34.1348 177.682 34.0903 177.651 34.0458C178.907 35.607 179.791 37.4332 180.237 39.3863C180.405 39.1709 180.529 38.9243 180.602 38.6608C180.674 38.3973 180.694 38.1221 180.66 37.8509C180.758 38.1535 180.851 38.4606 180.936 38.7721C180.976 38.57 180.986 38.3631 180.967 38.158C181.738 40.5158 182.086 42.9911 181.995 45.47C181.995 47.9444 180.9 51.794 178.248 52.6618C178.114 52.7063 177.972 52.7419 177.829 52.7731C179.319 55.0859 180.211 57.7321 180.425 60.4744C180.64 63.2168 180.171 65.9696 179.06 68.486C177.949 71.0024 176.23 73.2037 174.059 74.8925C171.888 76.5814 169.331 77.705 166.619 78.1625C166.577 78.4592 166.536 78.7752 166.494 79.1105H166.387C166.316 79.778 166.258 80.4812 166.214 81.2155C166.881 81.8705 167.612 82.4579 168.395 82.969C170.618 84.2838 173.098 85.1049 175.666 85.3766C178.733 85.6117 181.714 86.4978 184.411 87.9757C187.58 89.7558 191.087 92.3326 192.177 95.4701C194.011 100.708 204.087 108.821 210.869 109.832L213.272 109.694L213.446 109.64V109.685L214.033 109.649H214.069H214.225V109.685L214.834 109.649C214.834 109.649 214.897 109.929 214.977 110.428C218.381 109.262 225.604 106.013 235.004 97.4861C245.48 87.9846 259.619 89.8537 265.07 91.0509C265.256 91.0919 265.424 91.1884 265.554 91.3277C265.683 91.4669 265.767 91.6422 265.794 91.8303C265.821 92.0183 265.79 92.2101 265.705 92.3802C265.62 92.5502 265.486 92.6904 265.32 92.7821C263.121 93.9926 259.703 95.7505 258.101 95.9463C258.101 95.9463 261.403 99.3642 257.896 101.189C257.476 101.396 257.007 101.481 256.541 101.437C256.075 101.392 255.63 101.218 255.257 100.935C253.571 99.7024 248.88 102.497 242.089 103.953C242.089 103.953 222.916 123.792 213.406 126.863C213.187 127.297 212.944 127.719 212.68 128.127L212.093 128.078L212.062 128.127H211.982L211.91 128.75C211.91 128.75 197.113 127.971 192.329 122.6C191.987 122.294 191.672 121.959 191.39 121.598L196.534 186.343H196.485L196.534 186.957H192.752C192.422 194.927 192.761 202.911 193.766 210.824V253.014C193.766 253.014 193.962 256.73 186.249 262.137C178.16 267.767 170.365 273.809 162.894 280.237L161.959 281.047C163.379 293.953 166.347 318.021 168.822 318.92L167.295 319.187C169.925 322.502 177.335 331.599 179.601 331.853C182.373 332.16 184.22 336.472 179.601 337.398C175.337 338.252 164.256 339.365 152.164 334.692C151.29 334.352 150.555 333.729 150.078 332.922C149.6 332.115 149.407 331.171 149.529 330.242L150.419 323.441C150.25 323.536 150.113 323.68 150.028 323.855C149.414 325.702 150.028 321.39 150.028 321.39C147.495 313.247 145.506 304.945 144.073 296.539L134.91 304.429C134.91 304.429 134.723 304.202 134.407 303.793C132.182 308.884 128.176 319.285 129.066 326.913C130.299 337.384 118.595 328.145 119.827 321.986C120.824 317.002 116.378 295.889 114.643 288.012C114.457 287.166 114.59 286.282 115.017 285.529C115.443 284.776 116.132 284.207 116.952 283.931Z" fill="#5BDECE"/>
<path d="M212.578 113.062C212.578 113.062 221.301 111.558 234.229 99.8315C244.465 90.5524 258.261 92.3815 263.602 93.5475C263.791 93.5759 263.966 93.6643 264.101 93.7999C264.235 93.9354 264.323 94.1107 264.351 94.3C264.378 94.4892 264.344 94.6822 264.253 94.8505C264.162 95.0187 264.02 95.1533 263.846 95.2342C261.697 96.4136 258.359 98.1314 256.797 98.3272C256.797 98.3272 260.019 101.665 256.597 103.45C256.186 103.651 255.728 103.734 255.273 103.69C254.818 103.646 254.384 103.477 254.02 103.2C252.373 101.999 247.789 104.727 241.163 106.147C241.163 106.147 215.302 132.911 209.289 128.399L212.578 113.062Z" fill="#FEC3BE"/>
<path d="M168.07 76.6939C168.07 76.6939 165.662 86.9298 168.07 94.135L157.242 95.6392L147.625 90.8106V84.5133C147.625 84.5133 152.137 74.8915 150.931 63.7655L168.07 76.6939Z" fill="#FEC3BE"/>
<path d="M137.398 298.323C137.398 298.323 129.569 313.659 130.784 323.882C131.999 334.104 120.548 325.083 121.763 319.071C122.738 314.207 118.394 293.588 116.703 285.898C116.517 285.066 116.648 284.195 117.069 283.455C117.49 282.714 118.172 282.157 118.982 281.892C122.6 280.704 128.648 279.222 131.692 281.474C136.196 284.79 137.398 298.323 137.398 298.323Z" fill="#5A5773"/>
<path d="M184.011 174.727L193.802 176.035C193.802 176.035 191.515 192.466 193.918 210.513V251.71C193.918 251.71 194.109 255.337 186.579 260.611C178.681 266.108 171.07 272.007 163.775 278.283L136.486 301.924C136.486 301.924 125.658 288.693 127.162 280.873C127.162 280.873 145.204 275.159 147.611 265.835C148.991 260.495 155.987 256.045 161.715 253.219C169.094 249.574 173.117 241.292 171.096 233.316C170.762 231.964 170.246 230.662 169.561 229.449C164.75 221.029 157.834 202.084 157.834 202.084L171.065 176.823L184.011 174.727Z" fill="#605D82"/>
<path opacity="0.05" d="M184.055 174.727L193.846 176.035C193.846 176.035 191.559 192.466 193.962 210.513V251.71C193.962 251.71 194.153 255.337 186.623 260.611C178.731 266.111 171.126 272.013 163.837 278.292L136.548 301.933C136.548 301.933 125.72 288.702 127.224 280.882C127.224 280.882 145.266 275.168 147.673 265.844C149.053 260.504 156.049 256.053 161.777 253.227C169.156 249.583 173.179 241.3 171.158 233.325C170.824 231.972 170.308 230.671 169.623 229.458C164.812 221.038 157.896 202.093 157.896 202.093L171.127 176.832L184.055 174.727Z" fill="black"/>
<path d="M169.574 316.063C169.574 316.063 151.822 319.071 151.23 320.896C150.638 322.72 151.23 318.488 151.23 318.488C151.23 318.488 140.994 287.513 143.41 260.148C145.827 232.782 140.402 214.754 140.402 214.754C140.402 214.754 134.087 194.304 137.696 182.578C141.305 170.851 179.196 175.96 179.196 175.96C179.196 175.96 165.965 206.903 166.268 221.652C166.268 221.652 164.763 266.156 162.058 271.269C162.058 271.256 166.268 314.861 169.574 316.063Z" fill="#605D82"/>
<path d="M167.469 84.5133C167.469 84.5133 165.667 95.6392 147.621 90.8283L159.637 182.244C159.637 182.244 194.519 183.445 194.221 179.235L187.015 123.908L167.469 84.5133Z" fill="white"/>
<path opacity="0.1" d="M167.02 83.9124C167.02 83.9124 170.437 87.5796 175.707 88.038C178.7 88.2691 181.61 89.1354 184.243 90.5791C187.358 92.3103 190.753 94.8292 191.808 97.9C193.913 103.912 207.144 113.837 213.17 111.732L211.065 129.774C211.065 129.774 193.927 128.884 190.918 122.257L196.032 186.61H191.528C191.528 186.61 189.12 169.169 187.318 165.559C185.515 161.95 181.906 142.106 181.603 137.29C181.301 132.475 176.793 104.803 172.881 100.001L167.015 85.7148L167.02 83.9124Z" fill="black"/>
<path opacity="0.1" d="M167.02 84.8159C167.02 84.8159 171.025 88.1848 176.308 88.6388C179.301 88.8699 182.211 89.7362 184.843 91.1799C187.959 92.9111 191.354 95.4301 192.409 98.5008C194.514 104.513 207.745 114.438 213.771 112.333L211.666 130.375C211.666 130.375 194.527 129.484 191.519 122.858L196.637 187.206H192.129C192.129 187.206 189.721 169.765 187.919 166.156C186.116 162.546 182.507 142.702 182.204 137.887C181.902 133.071 177.393 105.399 173.482 100.597L167.015 86.6138L167.02 84.8159Z" fill="black"/>
<path d="M167.02 84.2151C167.02 84.2151 171.025 87.584 176.308 88.0379C179.301 88.2691 182.211 89.1354 184.843 90.5791C187.959 92.3103 191.354 94.8292 192.409 97.9C194.514 103.912 207.745 113.837 213.771 111.732L211.666 129.774C211.666 129.774 194.527 128.884 191.519 122.257L196.632 186.61H192.129C192.129 186.61 189.721 169.169 187.919 165.559C186.116 161.95 182.507 142.106 182.204 137.29C181.902 132.475 177.393 104.803 173.482 100.001L167.015 86.0175L167.02 84.2151Z" fill="#67647E"/>
<path opacity="0.1" d="M151.683 72.6352C152.075 69.7869 151.292 68.0067 150.931 64.6645L168.07 77.5973C168.07 77.5973 167.66 79.3463 167.349 81.9009C166.494 82.039 165.629 82.1089 164.763 82.11C158.782 82.11 154.491 77.4594 151.683 72.6352Z" fill="black"/>
<path d="M164.763 81.2111C173.732 81.2111 181.003 73.9404 181.003 64.9716C181.003 56.0028 173.732 48.7321 164.763 48.7321C155.795 48.7321 148.524 56.0028 148.524 64.9716C148.524 73.9404 155.795 81.2111 164.763 81.2111Z" fill="#FEC3BE"/>
<path opacity="0.1" d="M182.485 49.0525C182.58 46.3112 182.126 43.5784 181.149 41.0151C181.413 41.4168 181.523 41.8999 181.461 42.3762C181.398 42.8525 181.166 43.2903 180.807 43.6097C180.287 40.8182 178.858 38.2771 176.744 36.3823C177.901 36.5692 178.493 38.0067 178.212 39.146C177.932 40.2853 177.051 41.162 176.205 41.972C176.303 40.2497 175.168 38.6475 173.726 37.6996C172.284 36.7517 170.566 36.3645 168.889 35.9462C169.472 36.1533 169.97 36.5476 170.306 37.0677C170.642 37.5877 170.796 38.2043 170.744 38.8211C170.74 39.0308 170.654 39.2306 170.504 39.3774C170.342 39.4827 170.15 39.534 169.957 39.5243C168.262 39.5911 166.565 39.5554 164.874 39.4175C162.797 39.1835 160.708 39.0721 158.617 39.0837C152.048 39.3596 145.506 43.8233 144.042 50.2096C143.739 51.7552 143.58 53.3255 143.566 54.9004L143.245 62.9467C143.152 65.2965 143.059 67.6774 143.53 69.9827C143.98 72.1341 144.9 74.1595 146.224 75.9137C147.548 77.668 149.244 79.1076 151.189 80.1296C153.548 76.7117 153.757 72.3192 154.576 68.2471C154.703 67.3035 155.052 66.4035 155.595 65.6213C156.187 64.8826 157.229 64.4153 158.11 64.7669C158.991 65.1184 159.374 66.4669 158.639 67.0677C159.271 67.8376 160.517 67.2635 161.243 66.5782C163.307 64.6214 164.729 62.0841 165.319 59.3018C165.613 57.8999 165.907 56.1865 167.26 55.7014C167.733 55.5712 168.228 55.5379 168.715 55.6035C171.577 55.7993 176.054 56.9831 178.831 56.0753C181.416 55.2074 182.485 51.4647 182.485 49.0525Z" fill="black"/>
<path d="M182.187 48.7499C182.282 46.0085 181.828 43.2757 180.852 40.7125C181.115 41.1142 181.226 41.5972 181.163 42.0735C181.1 42.5498 180.868 42.9876 180.509 43.3071C179.991 40.5124 178.562 37.9679 176.446 36.0708C177.603 36.2577 178.195 37.6952 177.914 38.8345C177.634 39.9738 176.753 40.8505 175.907 41.6605C176.005 39.9382 174.87 38.336 173.428 37.3881C171.986 36.4401 170.269 36.053 168.591 35.6346C169.174 35.8418 169.672 36.2361 170.008 36.7562C170.344 37.2762 170.498 37.8927 170.447 38.5096C170.442 38.7193 170.356 38.9191 170.206 39.0659C170.044 39.1711 169.852 39.2225 169.659 39.2127C167.964 39.2796 166.267 39.2439 164.576 39.1059C162.499 38.872 160.41 38.7606 158.319 38.7722C151.75 39.0481 145.208 43.5118 143.744 49.8981C143.441 51.4437 143.282 53.0139 143.268 54.5888L142.948 62.6351C142.854 64.9849 142.761 67.3659 143.232 69.6712C143.686 71.8178 144.607 73.8379 145.931 75.5873C147.255 77.3367 148.949 78.7722 150.892 79.7914C153.25 76.3735 153.459 71.9809 154.278 67.9088C154.405 66.9653 154.755 66.0653 155.297 65.2831C155.889 64.5444 156.931 64.0771 157.812 64.4286C158.693 64.7802 159.076 66.1287 158.341 66.7295C158.973 67.4994 160.22 66.9253 160.945 66.2399C163.009 64.2832 164.431 61.7458 165.022 58.9636C165.315 57.5617 165.609 55.8483 166.962 55.3632C167.435 55.233 167.93 55.1997 168.417 55.2653C171.279 55.4611 175.756 56.6449 178.533 55.737C181.114 54.9271 182.187 51.1665 182.187 48.7499Z" fill="#916168"/>
<path opacity="0.1" d="M214.532 111.727C214.532 111.727 216.939 122.853 212.427 129.769L209.872 129.56L211.265 111.914L214.532 111.727Z" fill="black"/>
<path d="M213.932 111.727C213.932 111.727 216.339 122.853 211.826 129.769L209.272 129.56L210.665 111.914L213.932 111.727Z" fill="#FD6F8D"/>
<path opacity="0.1" d="M149.276 81.3579L129.881 98.0469C129.881 98.0469 118.444 109.774 123.263 128.719C123.263 128.719 125.368 156.383 127.776 157.589C127.776 157.589 136.196 174.429 136.797 190.366C136.797 190.366 148.074 167.669 153.188 181.496C158.301 195.323 170.179 197.282 170.179 197.282L163.562 115.488C163.562 115.488 146.873 86.467 149.276 81.3579Z" fill="black"/>
<path d="M148.675 81.3579L129.28 98.0469C129.28 98.0469 117.852 109.774 122.663 128.719C122.663 128.719 124.768 156.383 127.175 157.589C127.175 157.589 135.595 174.429 136.196 190.366C136.196 190.366 148.074 166.458 153.188 180.29C158.301 194.122 169.579 197.282 169.579 197.282L162.947 115.488C162.947 115.488 146.267 86.467 148.675 81.3579Z" fill="#67647E"/>
<path d="M139.805 151.874C139.805 151.874 134.995 148.568 127.175 157.589L146.419 192.471L152.885 182.68C152.885 182.68 139.205 155.786 139.805 151.874Z" fill="#FEC3BE"/>
<path opacity="0.1" d="M144.465 153.828C144.465 153.828 133.825 165.782 129.672 163.864L125.827 154.896L140.251 148.715L144.465 153.828Z" fill="black"/>
<path d="M144.465 153.227C144.465 153.227 133.825 165.181 129.672 163.263L125.827 154.313L140.251 148.114L144.465 153.227Z" fill="#FD6F8D"/>
<path opacity="0.1" d="M152.235 180.432C152.235 180.432 147.171 190.815 144.465 191.42L148.372 195.933L154.087 185.105L152.235 180.432Z" fill="black"/>
<path d="M152.538 180.731C152.538 180.731 147.473 191.113 144.768 191.719L148.675 196.231L154.389 185.404L152.538 180.731Z" fill="#4D4981"/>
<path opacity="0.1" d="M142.96 116.538C142.96 116.538 142.36 138.189 144.763 146.307L142.96 116.538Z" fill="black"/>
<path opacity="0.1" d="M191.679 120.748C191.679 120.748 188.07 119.547 188.07 116.538L191.679 120.748Z" fill="black"/>
<path d="M264.378 98.5617L239.156 94.4856L238.865 96.2868L264.087 100.363L264.378 98.5617Z" fill="#40414D"/>
<path d="M272.654 100.797C272.654 100.797 270.042 102.577 267.532 102.898C267.073 102.963 266.607 102.963 266.148 102.898C263.847 102.528 262.654 101.402 262.436 100.081C262.35 99.4717 262.451 98.8511 262.725 98.3005C263.348 97.1123 264.835 96.4225 267.135 96.7963C267.838 96.93 268.508 97.1958 269.111 97.5796C270.463 98.4478 271.66 99.5352 272.654 100.797Z" fill="#40414D"/>
<path d="M272.655 100.797C272.655 100.797 270.042 102.577 267.532 102.898C267.454 102.621 267.473 102.326 267.586 102.061C267.829 101.684 268.112 101.335 268.431 101.02C268.694 100.655 268.765 100.05 268.378 99.827C268.286 99.7883 268.198 99.7406 268.115 99.6846C267.884 99.4755 268.115 99.1016 268.311 98.8791C268.685 98.5008 269.112 98.0513 269.108 97.544C270.463 98.4225 271.662 99.5221 272.655 100.797Z" fill="#F8BDC5"/>
</svg>
