<svg width="50" height="51" viewBox="0 0 50 51" fill="none" xmlns="http://www.w3.org/2000/svg">
<path fill-rule="evenodd" clip-rule="evenodd" d="M12.5003 4.87542C12.5003 3.72483 13.4331 2.79208 14.5837 2.79208C15.7342 2.79208 16.667 3.72483 16.667 4.87542V6.95875H33.3337V4.87542C33.3337 3.72483 34.2664 2.79208 35.417 2.79208C36.5676 2.79208 37.5003 3.72483 37.5003 4.87542V6.95875H39.5837C43.0355 6.95875 45.8337 9.75698 45.8337 13.2087V42.3754C45.8337 45.8273 43.0355 48.6254 39.5837 48.6254H10.417C6.96522 48.6254 4.16699 45.8273 4.16699 42.3754V13.2087C4.16699 9.75698 6.96522 6.95875 10.417 6.95875H12.5003V4.87542ZM33.3337 11.1254V13.2087C33.3337 14.3593 34.2664 15.2921 35.417 15.2921C36.5676 15.2921 37.5003 14.3593 37.5003 13.2087V11.1254H39.5837C40.7343 11.1254 41.667 12.0582 41.667 13.2087V19.4587H8.33366V13.2087C8.33366 12.0582 9.26641 11.1254 10.417 11.1254H12.5003V13.2087C12.5003 14.3593 13.4331 15.2921 14.5837 15.2921C15.7342 15.2921 16.667 14.3593 16.667 13.2087V11.1254H33.3337ZM8.33366 23.6254V42.3754C8.33366 43.526 9.26641 44.4587 10.417 44.4587H39.5837C40.7343 44.4587 41.667 43.526 41.667 42.3754V23.6254H8.33366Z" fill="white"/>
<path d="M14.583 29.4307C14.583 28.2801 15.5158 27.3474 16.6663 27.3474C17.8169 27.3474 18.7497 28.2801 18.7497 29.4307C18.7497 30.5813 17.8169 31.514 16.6663 31.514C15.5158 31.514 14.583 30.5813 14.583 29.4307Z" fill="white"/>
<path d="M16.6663 35.6807C15.5158 35.6807 14.583 36.6134 14.583 37.764C14.583 38.9147 15.5158 39.8474 16.6663 39.8474C17.8169 39.8474 18.7497 38.9147 18.7497 37.764C18.7497 36.6134 17.8169 35.6807 16.6663 35.6807Z" fill="white"/>
<path d="M22.917 29.4307C22.917 28.2801 23.8497 27.3474 25.0003 27.3474C26.151 27.3474 27.0837 28.2801 27.0837 29.4307C27.0837 30.5813 26.151 31.514 25.0003 31.514C23.8497 31.514 22.917 30.5813 22.917 29.4307Z" fill="white"/>
<path d="M25.0003 35.6807C23.8497 35.6807 22.917 36.6134 22.917 37.764C22.917 38.9147 23.8497 39.8474 25.0003 39.8474C26.151 39.8474 27.0837 38.9147 27.0837 37.764C27.0837 36.6134 26.151 35.6807 25.0003 35.6807Z" fill="white"/>
<path d="M31.25 29.4307C31.25 28.2801 32.1827 27.3474 33.3333 27.3474C34.484 27.3474 35.4167 28.2801 35.4167 29.4307C35.4167 30.5813 34.484 31.514 33.3333 31.514C32.1827 31.514 31.25 30.5813 31.25 29.4307Z" fill="white"/>
<path d="M33.3333 35.6807C32.1827 35.6807 31.25 36.6134 31.25 37.764C31.25 38.9147 32.1827 39.8474 33.3333 39.8474C34.484 39.8474 35.4167 38.9147 35.4167 37.764C35.4167 36.6134 34.484 35.6807 33.3333 35.6807Z" fill="white"/>
</svg>
