<svg width="49" height="51" viewBox="0 0 49 51" fill="none" xmlns="http://www.w3.org/2000/svg">
<path fill-rule="evenodd" clip-rule="evenodd" d="M3.125 18.9551C3.125 10.7583 10.5516 4.11139 20.3125 4.11139C28.0828 4.11139 35.9375 10.7583 35.9375 18.9551C35.9375 27.1536 29.8047 33.7989 20.3125 33.7989C18.9172 33.7989 16.0062 33.6395 14.7078 33.3692L9.375 36.9239V31.3864C5.56406 28.2942 3.125 24.1645 3.125 18.9551ZM15.0578 36.5114C16.2719 36.7098 19.0328 36.9239 20.3125 36.9239C31.5312 36.9239 39.0625 28.5755 39.0625 18.7598C39.0625 8.9442 29.6516 0.986389 20.3125 0.986389C9.07969 0.986389 0 8.9442 0 18.7598C0 24.4473 2.16719 29.2739 6.25 32.7505V41.6114L15.0578 36.5114ZM42.1078 15.2661C42.1375 15.713 42.1875 16.1567 42.1875 16.6114C42.1875 17.6051 42.0906 18.5786 41.9516 19.5395C44.0547 22.002 45.3125 25.0364 45.3125 28.3301C45.3125 33.5395 42.2 38.1129 37.5 40.7614V46.2989L32.1672 42.7442C30.8688 43.0145 29.5203 43.1739 28.125 43.1739C24.0781 43.1739 21.9281 41.9582 18.9906 39.9379C18.139 40.0067 17.2797 40.0489 16.4062 40.0489C15.7844 40.0489 15.175 40.0051 14.5625 39.9692C18.2828 43.6051 22.1078 45.9083 28.125 45.9083C29.4047 45.9083 30.6531 45.7927 31.8672 45.5942L40.625 50.9864V42.1255C45.375 38.8708 48.4375 33.8223 48.4375 28.1348C48.4375 23.0661 45.9984 18.5036 42.1078 15.2661ZM28.9062 21.2989C30.2016 21.2989 31.25 20.2505 31.25 18.9551C31.25 17.6614 30.2016 16.6114 28.9062 16.6114C27.6109 16.6114 26.5625 17.6614 26.5625 18.9551C26.5625 20.2505 27.6109 21.2989 28.9062 21.2989ZM10.1562 21.2989C11.4516 21.2989 12.5 20.2505 12.5 18.9551C12.5 17.6614 11.4516 16.6114 10.1562 16.6114C8.86094 16.6114 7.8125 17.6614 7.8125 18.9551C7.8125 20.2505 8.86094 21.2989 10.1562 21.2989ZM19.5312 21.2989C20.8266 21.2989 21.875 20.2505 21.875 18.9551C21.875 17.6614 20.8266 16.6114 19.5312 16.6114C18.2359 16.6114 17.1875 17.6614 17.1875 18.9551C17.1875 20.2505 18.2359 21.2989 19.5312 21.2989Z" fill="white"/>
</svg>
