<svg width="50" height="50" viewBox="0 0 50 50" fill="none" xmlns="http://www.w3.org/2000/svg">
<g clip-path="url(#clip0_601_679)">
<path d="M20.9091 34.091H1.81811V4.09092H40V19.091C40 19.5933 40.4066 20.0001 40.9092 20.0001C41.4118 20.0001 41.8184 19.5936 41.8184 19.091V3.18175C41.8184 2.67938 41.4118 2.27258 40.9092 2.27258H0.90917C0.406571 2.27281 0 2.67938 0 3.18175V35C0 35.5023 0.406571 35.9091 0.90917 35.9091H20.9093C21.4117 35.9091 21.8185 35.5026 21.8185 35C21.8182 34.4976 21.4117 34.091 20.9091 34.091Z" fill="white"/>
<path d="M20.9093 30.4546H5.45483V24.9218L10.0917 20.285L16.2803 24.8242C16.6291 25.0807 17.1113 25.055 17.4308 24.7621L27.1289 15.9081L31.0787 21.4371C31.37 21.8455 31.9381 21.9404 32.3465 21.6484C32.7549 21.3571 32.8498 20.789 32.5578 20.3806L28.0124 14.0168C27.8616 13.8046 27.6272 13.668 27.3689 13.6412C27.1133 13.6137 26.8521 13.6981 26.6605 13.8738L16.7554 22.9174L10.5383 18.3576C10.1762 18.0922 9.67455 18.1302 9.35759 18.4481L5.45483 22.3509V7.72737H36.3641V19.091C36.3641 19.5933 36.7707 20.0001 37.2733 20.0001C37.7756 20.0001 38.1824 19.5936 38.1824 19.091V6.8182C38.1824 6.31583 37.7759 5.90903 37.2733 5.90903H4.54589C4.04352 5.90903 3.63672 6.3156 3.63672 6.8182V31.3637C3.63672 31.8661 4.04329 32.2729 4.54589 32.2729H20.9096C21.4119 32.2729 21.8187 31.8663 21.8187 31.3637C21.8185 30.8616 21.4119 30.4546 20.9093 30.4546Z" fill="white"/>
<path d="M37.2731 22.2727C30.2553 22.2727 24.5459 27.9821 24.5459 35C24.5459 42.0178 30.2553 47.7272 37.2731 47.7272C44.291 47.7272 50.0004 42.0178 50.0004 35C50.0004 27.9821 44.2912 22.2727 37.2731 22.2727ZM37.2731 45.9095C31.2575 45.9095 26.364 41.016 26.364 35.0004C26.364 28.9848 31.2575 24.0913 37.2731 24.0913C43.2887 24.0913 48.1823 28.9848 48.1823 35.0004C48.1823 41.016 43.289 45.9095 37.2731 45.9095Z" fill="white"/>
<path d="M38.1818 27.7273H36.3637V34.091H30V35.9091H36.3637V42.2731H38.1818V35.9091H44.5456V34.091H38.1818V27.7273Z" fill="white"/>
<path d="M10 13.1819C10 15.1875 11.6309 16.8184 13.6365 16.8184C15.642 16.8184 17.2729 15.1875 17.2729 13.1819C17.2729 11.1763 15.642 9.54547 13.6365 9.54547C11.6309 9.54547 10 11.1763 10 13.1819ZM15.4546 13.1819C15.4546 14.1841 14.6387 15 13.6365 15C12.6342 15 11.8183 14.1841 11.8183 13.1819C11.8183 12.1797 12.6342 11.3638 13.6365 11.3638C14.6387 11.3638 15.4546 12.1797 15.4546 13.1819Z" fill="white"/>
</g>
<defs>
<clipPath id="clip0_601_679">
<rect width="50" height="50" fill="white"/>
</clipPath>
</defs>
</svg>
