<svg width="548" height="351" viewBox="0 0 548 351" fill="none" xmlns="http://www.w3.org/2000/svg">
<g clip-path="url(#clip0_325_411)" filter="url(#filter0_d_325_411)">
<path d="M205.611 345.858C301.603 362.42 351.138 329.268 351.389 328.282C354.077 326.7 356.789 325.137 359.333 323.342C363.38 320.486 367.324 317.48 371.259 314.467C373.198 312.983 375.093 311.421 376.865 309.744C378.139 308.538 379.079 306.983 380.337 305.758C383.226 302.946 386.332 300.352 389.144 297.468C394.194 292.289 399.165 287.029 404.031 281.678C407.963 277.355 411.75 272.896 415.493 268.406C418.094 265.286 420.513 262.015 423.007 258.805C425.083 256.134 427.336 253.575 429.171 250.746C431.34 247.402 433.238 243.87 435.083 240.331C436.983 236.688 438.841 233.006 440.421 229.218C442.312 224.682 444.843 220.369 445.045 215.213C445.209 211.03 445.932 206.87 446.174 202.687C446.459 197.769 445.873 192.888 444.996 188.046C444.239 183.866 443.155 179.756 441.099 176.036C438.93 172.114 436.577 168.276 434.056 164.57C431.03 160.12 427.415 156.192 423.011 152.988C418.9 149.998 414.421 147.752 409.749 145.862C405.381 144.096 400.935 142.523 396.551 140.797C394.035 139.806 391.588 138.641 389.082 137.624C385.019 135.975 380.891 134.482 376.867 132.746C370.592 130.04 365.035 126.31 360.456 121.133C357.474 117.761 354.234 114.616 351.074 111.404C347.965 108.244 344.78 105.157 341.688 101.98C340.391 100.646 339.354 99.0499 338.008 97.7735C336.018 95.886 333.883 94.1471 331.763 92.4012C329.667 90.675 327.691 88.7017 325.35 87.3966C320.173 84.5106 315.035 81.5157 309.257 79.8258C304.239 78.3582 299.352 76.5777 294.128 75.7137C288.731 74.8212 283.374 73.9955 277.901 74.0018C270.884 74.01 263.867 73.9844 256.85 74.0176C255.125 74.0258 253.377 74.0639 251.679 74.334C247.104 75.0618 242.541 75.8715 237.992 76.746C234.361 77.4441 230.753 78.2629 227.144 79.0705L227.017 79.0989C224.386 79.6875 221.752 80.2769 219.153 80.9862C214.624 82.2217 210.114 83.5262 205.611 84.8516C199.46 86.6621 193.998 90.2061 187.76 91.8638C184.439 92.7463 181.241 94.1423 178.053 95.4658C172.583 97.7373 167.148 100.096 161.732 102.494C159.212 103.609 156.851 105.115 154.278 106.067C149.094 107.986 144.255 110.549 139.675 113.575C135.918 116.057 132.408 118.909 128.686 121.447C123.485 124.993 118.542 128.821 114.6 133.775C111.778 137.323 108.811 140.803 106.409 144.627C103.015 150.03 99.9061 155.633 97.0031 161.318C94.2892 166.632 91.9454 172.14 89.5487 177.61C87.9773 181.197 86.4122 184.808 85.1879 188.521C83.7621 192.845 82.8286 197.329 81.4604 201.675C80.3663 205.15 79.9634 208.669 80.0026 212.268C80.0132 213.237 80.2675 214.203 80.2799 215.172C80.4007 224.621 80.467 234.07 80.6195 243.518C80.6468 245.204 80.9468 246.893 81.212 248.566C81.6758 251.493 82.1879 254.413 82.722 257.329C83.1676 259.761 83.4749 262.243 84.1907 264.598C86.2474 271.363 88.8927 277.905 92.4121 284.054C94.7297 288.104 97.1349 292.105 99.6002 296.066C100.368 297.3 101.471 298.322 102.402 299.456C104.286 301.752 105.75 303.735 108.059 306.337C135.336 337.086 173.956 340.397 205.611 345.858Z" fill="#64FCD9"/>
<path d="M128.141 322.891C126.187 318.291 124.654 313.73 123.864 308.903C123.237 305.068 122.208 301.301 121.508 297.476C121.132 295.421 121.14 293.299 120.857 291.223C120.371 287.653 119.794 284.095 119.254 280.532C118.987 278.775 118.637 277.027 118.463 275.261C117.827 268.841 117.326 262.412 117.538 255.95C117.649 252.542 117.521 249.109 117.898 245.732C118.375 241.455 119.291 237.229 119.951 232.971C120.416 229.968 120.665 226.928 121.198 223.938C122.102 218.874 123.65 214.003 126.263 209.536C127.411 207.573 128.714 205.701 129.962 203.797C130.805 202.511 133.447 201.386 134.584 201.629C136.146 201.962 136.711 203.111 136.571 204.383C136.3 206.841 135.893 209.313 135.242 211.696C133.894 216.625 132.18 221.456 130.943 226.41C130.041 230.021 129.644 233.761 129.055 237.449C128.328 241.999 127.619 246.552 126.942 251.11C126.762 252.319 126.687 253.547 126.635 254.77C126.509 257.756 126.437 260.744 126.32 263.731C126.242 265.709 125.966 267.693 126.052 269.662C126.26 274.437 126.589 279.209 126.943 283.976C127.174 287.087 127.474 290.196 127.858 293.291C128.165 295.761 128.649 298.209 129.049 300.667C129.457 303.175 129.765 305.703 130.289 308.186C130.765 310.436 131.408 312.658 132.092 314.856C133.872 320.577 135.675 326.291 137.545 331.983C138.944 336.244 140.474 340.462 141.923 344.707C142.561 346.575 142.162 347.666 140.723 347.673C139.577 347.678 138.65 346.949 138.143 345.858C137.711 344.928 137.351 343.964 136.922 343.033C134.911 338.666 132.845 334.323 130.885 329.933C129.878 327.678 129.05 325.342 128.141 322.891Z" fill="#64FCD9"/>
<path d="M479.009 166.126C474.935 167.135 471.038 168.262 467.081 169.115C464.264 169.723 461.315 170.499 458.519 170.23C455.055 169.896 451.38 170.949 448.118 169.131C445.971 167.935 443.872 166.618 441.891 165.165C438.19 162.451 435.755 158.702 433.756 154.645C431.604 150.275 430.246 145.643 429.354 140.876C429.016 139.067 428.671 137.195 428.786 135.381C428.959 132.656 429.495 129.951 429.948 127.249C430.51 123.895 431.695 120.741 433.109 117.657C435.052 113.419 438.536 110.628 442.177 108.028C446.44 104.984 451.097 102.599 456.109 101.115C459.069 100.238 462.208 99.9227 465.287 99.5034C471.24 98.6928 477.006 100.191 482.655 101.584C490.75 103.581 495.388 109.518 497.724 117.197C499.003 121.402 499.641 125.806 500.503 130.133C500.98 132.526 501.527 134.933 501.664 137.355C501.776 139.323 501.47 141.352 501.091 143.303C500.349 147.122 498.724 150.606 496.585 153.846C494.84 156.49 492.34 158.38 489.946 160.363C486.748 163.012 482.973 164.611 479.009 166.126Z" fill="#64FCD9"/>
<path d="M493.875 195.29C492.907 194.019 491.851 192.908 491.187 191.597C490.811 190.856 490.82 189.692 491.116 188.888C491.641 187.465 493.139 187.547 494.227 187.862C495.364 188.192 496.479 188.925 497.365 189.741C502.083 194.081 506.236 198.955 509.754 204.288C512.731 208.8 515.058 213.709 515.886 219.14C516.426 222.687 516.902 226.262 517.084 229.84C517.423 236.512 517.686 243.197 517.68 249.875C517.676 255.547 516.719 261.108 514.402 266.363C513.639 268.095 511.08 270.328 508.938 270.204C507.254 270.107 505.613 268.883 505.657 267.211C505.721 264.781 506.009 262.349 506.342 259.937C506.727 257.142 507.301 254.374 507.721 251.584C508.081 249.194 508.55 246.794 508.594 244.391C508.668 240.399 508.678 236.376 508.27 232.412C507.885 228.685 507.021 224.995 506.193 221.328C505.213 216.986 504.19 212.615 501.954 208.709C499.379 204.209 496.626 199.809 493.875 195.29Z" fill="#64FCD9"/>
<path d="M155.802 179.236C154.565 180.639 153.353 181.926 152.253 183.303C149.534 186.708 146.875 190.161 144.174 193.581C143.385 194.58 142.3 195.211 141.098 194.608C139.905 194.01 140.069 192.691 140.135 191.561C140.286 188.948 141.617 186.769 143.068 184.764C146.112 180.554 149.317 176.444 153.11 172.867C157.075 169.128 161.247 165.641 165.81 162.616C168.267 160.988 170.63 159.261 173.597 158.742C174.253 158.628 175.423 158.678 175.567 159.002C175.85 159.643 175.869 160.735 175.484 161.27C174.645 162.437 173.533 163.426 172.445 164.388C170.544 166.067 168.535 167.624 166.648 169.318C163.03 172.567 159.465 175.876 155.802 179.236Z" fill="#64FCD9"/>
<path d="M396.907 78.7475C393.296 80.2732 389.674 81.8037 386.311 83.8189C384.783 84.7304 383.318 85.738 381.746 86.568C380.055 87.47 378.259 88.1513 376.477 88.8806C371.56 90.8924 366.784 93.2359 362.183 95.8951C362.581 90.7374 361.829 85.1335 358.749 81.1128C358.296 80.517 357.793 79.9616 357.244 79.4528C355.065 77.4281 351.975 76.9051 349.834 75.1347C351.137 72.8413 354.03 70.759 355.999 69.0078C358.126 67.1238 360.333 65.3374 362.619 63.6486C367.189 60.2683 372.055 57.3087 377.157 54.8061C380.396 53.218 383.777 51.7978 387.351 51.3133C387.801 51.2117 388.272 51.2536 388.697 51.4332C389.253 51.7403 389.454 52.4312 389.588 53.0501C390.254 56.1447 390.594 59.3209 391.15 62.4395C391.422 64.0422 391.791 65.6269 392.256 67.1846C392.853 69.0269 393.542 70.8379 394.321 72.611C395.186 74.6549 396.048 76.7004 396.907 78.7475Z" fill="#FBBEBE"/>
<path d="M294.392 166.203C294.391 172.572 292.381 178.778 288.649 183.935C284.918 189.092 279.655 192.937 273.613 194.921C267.57 196.904 261.057 196.926 255.001 194.981C248.946 193.037 243.659 189.227 239.894 184.094C236.084 178.91 234.031 172.64 234.035 166.203C234.035 158.187 237.215 150.498 242.874 144.83C248.534 139.161 256.21 135.977 264.213 135.977C272.217 135.977 279.893 139.161 285.553 144.83C291.212 150.498 294.392 158.187 294.392 166.203Z" fill="#BE6F72"/>
<path d="M253.403 192.841C255.017 195.628 256.646 198.44 257.68 201.477C258.715 204.514 259.117 207.877 258.265 210.982C268.544 205.56 280.779 205.997 292.093 203.252C292.396 203.218 292.674 203.07 292.874 202.84C292.943 202.682 292.978 202.512 292.978 202.341C292.978 202.169 292.943 201.999 292.874 201.842C290.505 193.063 289.594 183.953 290.177 174.878L284.271 178.375C281.685 179.975 279.006 181.417 276.247 182.693C272.343 184.406 268.2 185.443 264.123 186.642C260.894 187.602 254.485 188.844 252.454 191.67C252.821 192.017 253.139 192.41 253.403 192.841Z" fill="#BE6F72"/>
<path d="M236.776 152.193C234.812 152.985 232.503 153.897 230.697 152.788C229.37 151.968 228.824 150.265 228.905 148.705C228.987 147.146 229.581 145.668 230.05 144.181C231.008 141.125 231.526 137.944 232.594 134.902C233.662 131.86 235.406 128.928 238.174 127.321C243.271 124.366 249.867 126.808 255.525 125.172C257.92 124.486 260.003 123.104 262.231 122.02C264.458 120.935 266.964 120.1 269.368 120.681C272.185 121.338 274.264 123.713 276.889 124.922C279.763 126.246 283.202 126.155 285.818 127.926C287.672 129.183 288.84 131.212 289.88 133.203C293.206 139.602 295.832 146.343 297.712 153.306C298.464 155.8 298.894 158.38 298.991 160.983C299.015 164.313 298.114 167.575 297.223 170.79L295.786 175.876C295.255 177.795 294.708 179.714 293.703 181.451C292.697 183.188 291.145 184.651 289.224 185.155C286.829 185.774 284.041 184.574 282.996 182.329C282.355 180.937 282.383 179.345 282.35 177.814C282.297 174.817 281.976 171.83 281.392 168.89C281.095 167.417 280.697 165.886 279.696 164.773C278.403 163.334 276.343 162.854 274.427 162.821C272.185 162.792 269.728 163.401 268.42 165.22C267.371 166.688 267.189 168.751 265.795 169.898C265.175 170.374 264.439 170.674 263.663 170.766C262.082 170.963 260.48 170.624 259.114 169.802C257.748 168.98 256.697 167.723 256.128 166.232C255.687 164.965 255.472 163.392 254.274 162.797C253.652 162.485 252.909 162.542 252.243 162.341C250.203 161.722 249.666 159.131 249.479 157.006C249.264 154.516 250.092 149.598 247.003 149.43C243.674 149.247 239.837 151.171 236.776 152.193Z" fill="#3F3D56"/>
<path d="M244.013 184.958C242.949 185.471 241.785 186.071 241.369 187.175C241.206 187.606 241.177 188.081 241.029 188.523C240.353 190.476 237.718 190.859 236.358 192.414C235.744 193.2 235.332 194.124 235.156 195.106C234.247 198.978 234.541 203.035 235.999 206.736C236.421 207.908 237.073 208.985 237.915 209.902C240.348 212.387 244.545 212.339 247.577 210.646C250.609 208.952 252.702 205.982 254.479 202.969C255.422 201.453 256.21 199.845 256.831 198.171C257.378 196.469 257.768 194.72 257.995 192.946C259.059 186.033 260.448 178.366 259.969 171.356C258.532 171.265 255.787 171.164 254.518 172.066C252.927 173.198 253.368 175.482 252.793 177.137C251.433 181.12 247.486 183.221 244.013 184.958Z" fill="#3F3D56"/>
<path d="M245.259 185.874C243.462 185.985 240.243 183.994 238.442 184.094C237.216 181.952 236.133 179.73 235.199 177.445C236.157 176.068 237.7 175.732 240.033 177.445C241.906 178.764 244.492 183.327 245.259 185.874Z" fill="#3F3D56"/>
<path d="M272.338 110.068C270.388 111.1 269.181 111.148 268.218 110.941C267.256 110.735 265.344 111.695 265.344 111.695C248.459 117.481 247.793 120.211 247.793 120.211L267.342 113.297C271.102 111.647 271.174 112.227 271.174 112.227C274.048 114.933 277.708 113.1 277.708 113.1C277.708 113.1 282.771 110.701 281.281 108.394C279.792 106.086 274.292 109.056 272.338 110.068ZM280.481 109.636C280.481 109.636 279.044 113.475 273.876 112.851C273.876 112.851 271.337 112.477 272.41 110.581C272.41 110.581 277.679 108.365 279.073 108.523C280.467 108.681 280.467 109.655 280.467 109.655L280.481 109.636Z" fill="#E8E8F0"/>
<path opacity="0.1" d="M272.338 110.068C270.388 111.1 269.181 111.148 268.218 110.941C267.256 110.735 265.344 111.695 265.344 111.695C248.459 117.481 247.793 120.211 247.793 120.211L267.342 113.297C271.102 111.647 271.174 112.227 271.174 112.227C274.048 114.933 277.708 113.1 277.708 113.1C277.708 113.1 282.771 110.701 281.281 108.394C279.792 106.086 274.292 109.056 272.338 110.068ZM280.481 109.636C280.481 109.636 279.044 113.475 273.876 112.851C273.876 112.851 271.337 112.477 272.41 110.581C272.41 110.581 277.679 108.365 279.073 108.523C280.467 108.681 280.467 109.655 280.467 109.655L280.481 109.636Z" fill="black"/>
<path d="M273.411 99.3688C270.489 99.4647 269.88 101.653 269.88 101.653C269.296 102.352 268.953 103.222 268.904 104.133C268.854 105.044 269.101 105.946 269.607 106.705L264.42 111.872C263.437 112.252 262.592 112.921 261.996 113.791C261.996 113.791 250.605 123.867 250.772 124.783C250.772 124.783 252.631 125.743 264.42 114.981L267.514 112.237C267.514 112.237 268.199 107.108 273.032 106.134C273.032 106.134 273.511 106.345 273.765 105.203C274.036 104.655 274.397 104.157 274.834 103.73C275.475 103.135 276.333 99.268 273.411 99.3688ZM274.23 102.838C274.23 102.838 272.664 106.887 270.431 105.716C268.199 104.546 270.369 101.844 270.369 101.844C274.24 98.0733 274.23 102.838 274.23 102.838Z" fill="#E8E8F0"/>
<path opacity="0.1" d="M264.52 113.887C264.862 113.887 265.138 113.61 265.138 113.268C265.138 112.926 264.862 112.649 264.52 112.649C264.179 112.649 263.902 112.926 263.902 113.268C263.902 113.61 264.179 113.887 264.52 113.887Z" fill="black"/>
<path d="M318.578 93.6977C316.775 92.7463 314.903 91.9315 312.978 91.2603C310.42 90.5337 307.791 90.0833 305.137 89.9169C296.751 89.1173 288.339 88.6535 279.902 88.5256C278.412 88.5256 276.889 88.492 275.476 89.0054C274.214 89.4905 273.07 90.2415 272.123 91.2076C270.481 92.7792 269.177 94.6698 268.29 96.7635C268.006 97.2881 267.921 97.8984 268.051 98.4812C268.243 99.0377 269.009 99.4071 269.445 99.0137C268.33 99.9139 267.511 101.129 267.094 102.501C266.677 103.874 266.682 105.34 267.107 106.71C266.442 107.058 265.878 107.572 265.47 108.202C265.061 108.833 264.822 109.558 264.774 110.308C268.257 110.954 271.842 110.78 275.246 109.799C274.23 109.54 273.181 110.495 273.119 111.541C273.126 112.066 273.277 112.58 273.557 113.024C273.837 113.469 274.234 113.827 274.705 114.06C275.655 114.51 276.701 114.718 277.751 114.664C281.808 114.664 285.756 113.287 289.803 113.11C292.898 112.971 296.088 113.532 299.044 112.63C302.473 111.565 305.534 108.547 309.069 109.176C311.891 109.679 313.73 112.304 315.57 114.501C318.511 118.008 322.147 120.849 325.754 123.665C328.532 125.834 331.435 128.06 334.879 128.794C335.91 129.075 337.003 129.023 338.002 128.645C338.838 128.198 339.539 127.535 340.033 126.726C343.746 121.449 343.751 114.804 343.535 108.619C343.425 105.457 342.735 105.03 339.813 103.72C336.422 102.195 333.043 100.632 329.677 99.0329C325.96 97.2929 322.26 95.5145 318.578 93.6977Z" fill="#FBBEBE"/>
<path d="M357.402 105.539C356.831 105.881 356.228 106.165 355.601 106.388C354.552 106.638 353.484 106.191 352.464 105.846C348.152 104.407 343.362 104.747 339.195 102.967C340.561 110.824 338.772 118.904 334.218 125.445C333.355 126.673 332.22 127.931 330.726 128.026C331.391 130.075 333.442 131.313 335.386 132.234C338.492 133.706 341.741 134.854 345.082 135.66C346.04 135.885 347.209 135.996 347.764 135.18C348.1 134.7 348.243 133.88 348.833 133.909C349.733 134.868 349.436 136.835 350.682 137.267C351.07 137.366 351.477 137.366 351.865 137.267L354.643 136.787C355.477 136.715 356.279 136.438 356.981 135.981C357.42 135.599 357.783 135.137 358.049 134.619C361.163 129.308 362.36 123.161 362.839 117.092C363.074 114.079 363.366 110.884 363.16 107.861C362.969 105.27 359.654 104.488 357.402 105.539Z" fill="#E8E8F0"/>
<path opacity="0.1" d="M357.402 105.539C356.831 105.881 356.228 106.165 355.601 106.388C354.552 106.638 353.484 106.191 352.464 105.846C348.152 104.407 343.362 104.747 339.195 102.967C340.561 110.824 338.772 118.904 334.218 125.445C333.355 126.673 332.22 127.931 330.726 128.026C331.391 130.075 333.442 131.313 335.386 132.234C338.492 133.706 341.741 134.854 345.082 135.66C346.04 135.885 347.209 135.996 347.764 135.18C348.1 134.7 348.243 133.88 348.833 133.909C349.733 134.868 349.436 136.835 350.682 137.267C351.07 137.366 351.477 137.366 351.865 137.267L354.643 136.787C355.477 136.715 356.279 136.438 356.981 135.981C357.42 135.599 357.783 135.137 358.049 134.619C361.163 129.308 362.36 123.161 362.839 117.092C363.074 114.079 363.366 110.884 363.16 107.861C362.969 105.27 359.654 104.488 357.402 105.539Z" fill="black"/>
<path d="M196.82 261.167C195.454 259.411 194.051 257.55 192.029 256.624C190.865 256.153 189.639 255.853 188.389 255.731C181.649 254.772 174.895 253.774 168.093 253.587C165.87 253.524 163.485 253.587 161.674 254.887C159.6 256.37 158.8 259.1 158.685 261.647C158.561 264.681 159.162 267.7 160.439 270.454C161.715 273.208 163.63 275.617 166.023 277.48C170.095 280.589 175.24 281.889 180.26 282.916C182.899 283.458 185.553 283.943 188.216 284.356C190.88 284.768 193.591 285.094 196.163 285.92C201.663 287.685 206.515 291.677 212.282 292.008C212.554 292.05 212.831 292.003 213.073 291.874C213.326 291.669 213.496 291.379 213.552 291.058C214.821 286.572 219.223 275.83 213.552 272.692C210.587 271.056 207.296 270.984 204.393 268.906C201.49 266.829 199.023 264.003 196.82 261.167Z" fill="#BE6F72"/>
<path d="M148.396 290.948C144.664 287.695 139.514 285.972 136.803 281.832C135.61 280.009 135.007 277.869 134.408 275.767L132.645 269.425C132.51 269.035 132.448 268.623 132.463 268.211C132.597 266.887 134.154 266.258 135.467 266.052C142.173 265.006 149.157 267.712 154.177 272.289C159.197 276.866 162.421 283.18 164.313 289.724C164.446 290.057 164.467 290.425 164.371 290.77C164.207 291.078 163.948 291.323 163.633 291.471C161.209 292.91 157.952 295.007 155.121 295.448C152.29 295.89 150.412 292.685 148.396 290.948Z" fill="#BE6F72"/>
<path d="M312.116 263.6L331.756 271.473C333.619 272.22 335.153 273.612 336.077 275.396C337.001 277.181 337.254 279.238 336.79 281.194L322.175 342.765H285.636L291.997 272.716C291.997 272.716 305.889 261.201 312.116 263.6Z" fill="#3F3D56"/>
<path d="M331.085 256.211C330.721 257.008 330.184 257.795 330.266 258.663C330.313 259.181 330.582 259.671 330.543 260.184C330.467 261.191 329.303 261.753 328.297 261.762C327.291 261.772 326.28 261.446 325.288 261.618C323.66 261.897 322.558 263.398 321.15 264.267C319.186 265.476 316.733 265.404 314.443 265.61C309.653 266.042 305.122 267.841 300.787 269.89C297.841 271.281 294.713 273.066 293.601 276.127C292.006 280.445 295.101 284.994 295.786 289.561C295.969 291.099 296.014 292.65 295.92 294.196C295.417 310.326 294.55 326.644 293.63 342.755L118.04 342.962L126.686 327.786C135.117 312.985 143.773 297.905 156.491 286.587C158.378 284.881 160.497 283.453 162.785 282.345L172.984 291.461C173.8 292.275 174.748 292.944 175.786 293.443C177.702 294.225 179.848 293.779 181.903 293.846C185.855 293.975 189.467 295.995 192.897 297.967C195.412 299.335 197.832 300.872 200.139 302.568C201.49 303.605 203.44 304.252 204.848 305.207L204.518 287.983C204.484 286.428 204.46 284.835 204.925 283.353C205.825 280.474 208.398 278.44 209.634 275.7C210.194 274.467 210.467 273.124 210.937 271.862C211.6 270.24 212.425 268.689 213.399 267.232L219.755 257.003C221.327 254.479 222.893 251.956 224.598 249.523C232.057 238.867 242.097 230.332 251.864 221.767C251.637 219.327 252.2 216.878 253.469 214.782C253.969 214.084 254.384 213.328 254.705 212.531C254.912 211.587 254.971 210.616 254.882 209.653C254.882 209.408 254.882 209.173 254.882 208.914C254.988 207.345 255.643 205.864 256.731 204.73C257.852 203.564 259.351 202.854 260.827 202.192C268.462 198.772 276.4 196.077 284.538 194.141C285.836 193.834 287.211 193.546 288.49 193.935C288.878 195.187 290.2 195.628 291.522 195.945L292.37 196.142C294.615 196.628 296.71 197.652 298.473 199.126C300.327 200.748 301.601 202.916 302.842 205.052C312.168 221.091 316.465 242.134 330.893 253.788C331.592 254.34 331.449 255.444 331.085 256.211Z" fill="#30B8A8"/>
<path opacity="0.1" d="M389.923 59.2106C384.875 70.3272 374.925 81.2808 361.934 81.2808C360.874 81.2814 359.814 81.2285 358.758 81.1224C358.306 80.5266 357.803 79.9712 357.254 79.4624C355.075 77.4377 351.985 76.9147 349.844 75.1443C351.147 72.8509 354.04 70.7686 356.009 69.0174C358.136 67.1334 360.342 65.347 362.629 63.6582C367.199 60.2779 372.065 57.3183 377.167 54.8157C380.405 53.2276 383.787 51.8074 387.361 51.3228C387.811 51.2213 388.282 51.2632 388.707 51.4428C389.262 51.7499 389.464 52.4408 389.598 53.0597C390.264 56.1303 389.368 56.0919 389.923 59.2106Z" fill="black"/>
<path d="M361.934 80.3164C379.66 80.3164 394.029 65.9243 394.029 48.1707C394.029 30.417 379.66 16.0249 361.934 16.0249C344.209 16.0249 329.84 30.417 329.84 48.1707C329.84 65.9243 344.209 80.3164 361.934 80.3164Z" fill="#FBBEBE"/>
<path d="M428.772 155.082C428.25 158.968 427.338 162.792 426.051 166.496C425.572 167.844 424.983 169.159 424.374 170.454C420.806 178.03 418.847 186.22 417.912 194.549C417.841 195.205 417.721 195.854 417.553 196.492C416.849 199.179 415.364 201.578 414.229 204.106C413.071 206.837 412.111 209.648 411.355 212.517C411.081 213.237 410.989 214.013 411.086 214.777C411.264 215.588 411.848 216.216 412.26 216.95C414.387 220.621 411.929 225.107 411.101 229.262C410.818 230.701 410.694 232.265 409.759 233.388C408.964 234.347 407.728 234.789 406.555 235.192C389.827 240.888 372.706 245.352 355.328 248.549C352.737 249.029 350.059 249.475 347.487 248.995C344.914 248.515 342.352 246.923 341.47 244.437C340.962 242.998 341.049 241.434 341.092 239.908C341.188 236.703 341.092 233.479 340.919 230.25C340.364 219.623 339.104 208.957 341.877 198.776C342.706 195.772 343.875 192.875 344.814 189.905C346.648 184.114 347.123 178.126 347.583 172.119C347.961 167.168 348.33 162.197 349.436 157.313C350.26 153.671 349.714 149.886 349.666 146.153C349.571 137.611 352.078 129.243 356.852 122.163C357.68 120.94 358.59 119.731 359.026 118.325C359.64 116.31 359.218 114.146 358.94 112.054C358.241 106.721 358.523 101.304 359.774 96.0726C360.167 94.1152 360.915 92.2466 361.982 90.5599C363.175 88.8182 364.885 87.5036 366.595 86.2658C376.523 79.0968 387.478 73.4755 399.087 69.5932C400.155 72.2992 401.18 75.461 401.999 78.2293C402.11 78.6036 402.186 79.0786 401.88 79.3184C401.573 79.5583 401.257 79.4288 400.922 79.4384C400.576 79.476 400.249 79.6175 399.985 79.8444C399.721 80.0714 399.531 80.3731 399.441 80.7098C399.274 81.3893 399.338 82.1053 399.623 82.7441C400.275 84.4234 401.678 85.6756 403.029 86.8607L409.822 92.7957C410.635 93.5577 411.522 94.236 412.471 94.8204C413.323 95.3002 414.253 95.6408 415.129 96.0822C418.645 97.8622 421.074 101.331 422.43 105.035C423.785 108.739 423.172 113.191 424.94 116.708C430.812 128.367 430.765 142.161 428.772 155.082Z" fill="#E8E8F0"/>
<path d="M424.308 277.072C426.371 285.405 426.32 294.122 424.159 302.429C423.771 303.912 423.316 305.447 423.623 306.949C423.8 307.803 424.217 308.604 424.312 309.472C424.354 310.265 424.269 311.058 424.059 311.823C421.932 321.899 422.693 332.368 423.551 342.65C423.187 342.65 423.072 342.818 422.689 342.818H413.458C413.295 340.116 409.942 338.092 408.304 335.938C406.719 333.826 405.623 331.388 405.095 328.799C404.567 326.211 404.621 323.538 405.252 320.973C406.689 315.215 410.924 310.614 413.094 305.111C415.489 299.056 415.283 292.2 417.827 286.212C419.288 282.753 422.018 280.052 424.308 277.072Z" fill="#3F3D56"/>
<path opacity="0.1" d="M424.308 277.072C426.371 285.405 426.32 294.122 424.159 302.429C423.771 303.912 423.316 305.447 423.623 306.949C423.8 307.803 424.217 308.604 424.312 309.472C424.354 310.265 424.269 311.058 424.059 311.823C421.932 321.899 422.693 332.368 423.551 342.65C423.187 342.65 423.072 342.818 422.689 342.818H413.458C413.295 340.116 409.942 338.092 408.304 335.938C406.719 333.826 405.623 331.388 405.095 328.799C404.567 326.211 404.621 323.538 405.252 320.973C406.689 315.215 410.924 310.614 413.094 305.111C415.489 299.056 415.283 292.2 417.827 286.212C419.288 282.753 422.018 280.052 424.308 277.072Z" fill="black"/>
<path d="M404.936 230.893C397.089 229.636 389.487 233.594 381.909 235.998C370.331 239.668 357.584 239.894 346.888 245.656C345.932 246.116 345.066 246.744 344.33 247.508C343.462 248.585 342.915 249.885 342.754 251.26C342.276 254.299 342.863 257.41 344.416 260.064C345.082 261.196 345.92 262.237 346.437 263.451C347.664 266.33 346.845 269.65 346.634 272.797C346.155 279.826 348.876 286.668 349.422 293.692C349.748 297.833 349.321 302.065 350.294 306.104C350.902 308.638 352.047 311.027 352.521 313.589C352.995 316.151 352.789 318.656 352.947 321.189C353.393 328.448 356.693 335.501 355.889 342.731L418.161 342.938C415.852 334.892 413.932 326.572 416.025 318.468C416.751 315.906 417.654 313.397 418.727 310.96C422.209 302.53 425.787 294.076 427.708 285.162C429.629 276.247 429.802 266.728 426.549 258.207C422.928 248.707 415.23 240.805 413.553 230.778C410.679 230.394 407.814 231.353 404.936 230.893Z" fill="#3F3D56"/>
<path d="M339.583 32.4912C338.979 31.2246 337.269 30.3897 336.12 31.191C334.97 31.9922 335.118 33.7818 334.836 35.2212C334.29 38.0519 331.483 39.9807 328.609 40.4317C327.262 40.6476 325.763 40.5612 324.719 39.688C324.046 39.0428 323.551 38.2347 323.282 37.3419C320.408 29.6653 322.156 20.7028 326.86 14.005C327.858 12.5041 329.096 11.1782 330.525 10.0803C334.486 7.20161 339.784 7.20161 344.684 7.35514C345.68 7.46321 346.686 7.34682 347.63 7.0145C348.35 6.63514 349.009 6.14997 349.585 5.57513C354.227 1.48735 360.641 -0.230292 366.83 0.0431868C373.019 0.316666 378.973 2.44212 384.472 5.26807C387.102 6.61627 389.679 8.1468 391.739 10.2771C396.687 15.3772 397.894 22.9338 398.867 29.9771C399.911 37.577 400.95 45.3879 399.192 52.8582C398.196 57.0899 396.318 61.2257 396.539 65.5677C392.56 66.7058 388.516 67.6015 384.429 68.2498C382.513 68.552 380.3 68.7295 378.896 67.3717C378.303 66.7345 377.869 65.9648 377.632 65.1263C376.113 60.6307 376.621 55.497 374.326 51.3421C373.367 49.6479 371.996 48.224 370.34 47.2024C368.685 46.1808 366.798 45.5946 364.856 45.4982C363.352 45.4455 361.642 45.8149 360.871 47.1055C360.575 47.7386 360.347 48.4012 360.19 49.0823C359.127 52.292 354.773 53.8801 351.903 52.0905C350.466 51.1885 349.484 49.6916 348.186 48.5689C346.538 47.1535 344.426 46.4242 342.577 45.2823C336.417 41.4584 341.968 37.505 339.583 32.4912Z" fill="#3F3D56"/>
<path d="M291.542 195.95C288.922 196.79 286.536 198.311 283.988 199.38C279.499 201.256 274.565 201.693 269.857 202.892C265.333 204.108 260.972 205.867 256.87 208.132C256.569 208.295 255.62 209.091 254.863 209.638C254.863 209.394 254.863 209.159 254.863 208.899C254.969 207.33 255.624 205.849 256.712 204.716C257.833 203.55 259.333 202.84 260.808 202.178C268.45 198.761 276.395 196.071 284.539 194.141C285.837 193.834 287.212 193.546 288.491 193.935C288.898 195.187 290.22 195.629 291.542 195.95Z" fill="#3F3D56"/>
<path opacity="0.1" d="M223.631 318.991C228.785 324.749 233.408 331.034 239.405 335.89C232.483 326.682 222.553 320.536 213.576 313.594C211.756 312.183 208.115 310.183 207.014 308.143C205.275 304.948 209.116 307.217 210.712 308.086C215.693 310.797 219.87 314.798 223.631 318.991Z" fill="black"/>
<path opacity="0.1" d="M409.084 150.932C408.84 153.004 408.068 154.971 407.288 156.9C405.372 161.698 403.317 166.448 400.423 170.704C398.431 173.635 396.059 176.283 393.98 179.148C391.846 182.188 389.889 185.349 388.117 188.614C384.85 194.41 381.666 200.254 378.566 206.145C377.085 208.967 375.615 211.812 373.703 214.359C372.362 216.079 370.923 217.719 369.392 219.272C366.039 222.813 362.595 226.085 359.596 229.924C358.111 231.843 355.635 232.582 353.321 233.234C352.547 233.492 351.741 233.637 350.926 233.666C350.106 233.609 349.298 233.429 348.531 233.133C345.947 232.344 343.418 231.382 340.962 230.255C340.407 219.627 339.147 208.962 341.92 198.781C342.749 195.777 343.918 192.879 344.857 189.909C346.691 184.118 347.166 178.131 347.626 172.124C348.196 170.919 348.804 169.725 349.393 168.564C353.388 160.657 356.756 151.949 355.716 143.135C355.452 141.546 355.268 139.945 355.165 138.337C355.175 136.366 355.507 134.41 356.147 132.546C357.581 128.144 359.951 124.106 363.093 120.71C366.236 117.313 370.076 114.64 374.35 112.875C375.7 112.243 377.172 111.916 378.661 111.915C380.577 112.016 382.412 113.014 384.28 112.649C390.608 115.437 395.729 120.196 399.556 125.963C403.384 131.73 403.594 139.436 407.757 144.963C408.988 146.642 409.323 148.864 409.084 150.932Z" fill="black"/>
<path d="M270.579 124.893L270.378 124.457L262.551 128.074L261.243 128.679L259.94 129.279L270.977 153.244L272.28 152.64L273.588 152.035L281.415 148.417L281.214 147.986L273.387 151.603L273.185 151.167L281.013 147.549L280.811 147.112L272.984 150.73L272.783 150.293L280.61 146.676L280.414 146.239L272.582 149.857L272.381 149.425L280.213 145.807L280.011 145.371L272.179 148.988L271.978 148.552L279.81 144.934L279.609 144.498L271.782 148.115L271.581 147.679L279.408 144.061L279.207 143.629L271.379 147.247L271.178 146.81L279.005 143.193L278.804 142.756L270.977 146.374L270.776 145.937L278.608 142.319L278.407 141.883L270.575 145.5L270.373 145.069L278.206 141.446L278.004 141.014L270.172 144.632L269.976 144.195L277.803 140.578L277.602 140.141L269.775 143.759L269.574 143.322L277.401 139.704L277.2 139.268L269.372 142.885L269.171 142.454L276.998 138.836L276.802 138.399L268.97 142.017L268.769 141.58L276.601 137.963L276.4 137.526L268.568 141.144L268.371 140.707L276.198 137.094L275.997 136.658L268.17 140.275L267.969 139.839L275.796 136.221L275.595 135.785L267.768 139.402L267.566 138.966L275.394 135.348L275.197 134.911L267.365 138.534L267.164 138.097L274.996 134.48L274.795 134.043L266.963 137.661L266.762 137.224L274.594 133.606L274.392 133.17L266.565 136.787L266.364 136.351L274.191 132.733L273.99 132.301L266.163 135.919L265.962 135.482L273.789 131.865L273.588 131.428L265.761 135.046L265.559 134.609L273.391 130.992L273.19 130.56L265.358 134.173L265.157 133.741L272.989 130.123L272.788 129.687L264.956 133.304L264.759 132.868L272.587 129.25L272.385 128.813L264.558 132.431L264.357 131.994L272.184 128.377L271.983 127.945L264.156 131.562L263.955 131.126L271.782 127.508L271.585 127.072L263.753 130.689L263.552 130.253L271.384 126.635L271.183 126.198L263.351 129.816L263.15 129.384L270.982 125.767L270.781 125.33L262.949 128.948L262.752 128.511L270.579 124.893Z" fill="black"/>
<path opacity="0.1" d="M295.154 177.603C294.143 179.316 292.596 180.803 290.675 181.307C288.28 181.926 285.492 180.726 284.447 178.481C283.806 177.09 283.834 175.497 283.801 173.966C283.748 170.969 283.427 167.982 282.843 165.042C282.546 163.569 282.148 162.039 281.147 160.925C279.854 159.486 277.794 159.006 275.878 158.973C273.636 158.944 271.179 159.553 269.871 161.372C268.822 162.84 268.64 164.903 267.246 166.05C266.626 166.526 265.89 166.826 265.114 166.918C263.533 167.115 261.931 166.776 260.565 165.954C259.199 165.132 258.148 163.875 257.579 162.384C257.138 161.117 256.923 159.544 255.725 158.949C255.103 158.637 254.36 158.694 253.694 158.493C251.654 157.874 251.117 155.283 250.93 153.158C250.715 150.668 251.543 145.75 248.454 145.582C245.149 145.4 241.312 147.324 238.251 148.345C236.287 149.137 233.978 150.049 232.172 148.94C230.845 148.12 230.299 146.417 230.38 144.857C230.462 143.298 231.056 141.82 231.525 140.333C232.33 137.819 232.814 135.209 233.551 132.656C233.205 133.378 232.896 134.118 232.627 134.873C231.564 137.9 231.065 141.11 230.088 144.152C229.609 145.639 229.025 147.117 228.943 148.677C228.862 150.236 229.422 151.939 230.735 152.76C232.541 153.868 234.85 152.956 236.814 152.165C239.875 151.143 243.711 149.219 247.017 149.401C250.106 149.569 249.278 154.487 249.493 156.977C249.68 159.102 250.217 161.693 252.257 162.312C252.923 162.514 253.666 162.456 254.288 162.768C255.486 163.363 255.725 164.937 256.142 166.203C256.711 167.694 257.762 168.951 259.128 169.773C260.494 170.595 262.096 170.935 263.677 170.737C264.453 170.645 265.189 170.345 265.809 169.869C267.203 168.722 267.385 166.659 268.434 165.191C269.741 163.363 272.199 162.753 274.441 162.792C276.357 162.821 278.441 163.3 279.71 164.745C280.711 165.858 281.109 167.388 281.406 168.861C281.99 171.801 282.311 174.788 282.364 177.785C282.397 179.316 282.364 180.909 283.01 182.3C284.05 184.545 286.843 185.745 289.238 185.126C291.154 184.622 292.706 183.135 293.716 181.422C294.486 180.023 295.078 178.534 295.479 176.989C295.374 177.209 295.269 177.406 295.154 177.603Z" fill="black"/>
<path d="M319.794 174.417C315.962 170.732 312.499 166.654 309.059 162.586C305.764 158.694 302.458 154.784 299.805 150.433C298.161 147.741 296.696 144.805 294.171 142.919C292.255 141.48 289.913 140.808 287.795 139.709C286.272 138.918 284.869 137.915 283.365 137.094C280.084 135.318 276.391 134.446 272.663 134.566C271.116 134.619 269.358 134.979 268.563 136.312C268.29 136.768 268.16 137.301 267.883 137.752C267.025 139.191 264.961 139.599 264.256 141.11C263.068 143.653 266.651 145.99 266.877 148.787C266.982 150.188 266.211 151.493 265.986 152.879C265.602 155.278 266.843 157.567 268.041 159.659C270.603 164.14 273.722 169.048 278.756 170.176C280.538 170.574 282.421 170.444 284.16 171.011C285.561 171.543 286.858 172.317 287.992 173.299C292.722 177.033 296.891 181.43 300.37 186.354C301.989 188.643 303.455 191.032 305.088 193.306C310.287 200.511 317.109 206.386 325.001 210.454L330.879 191.742C331.784 188.864 332.498 184.915 329.921 182.669C326.692 179.757 322.97 177.459 319.794 174.417Z" fill="#FBBEBE"/>
<path d="M383.777 110.27C381.909 110.629 380.055 109.636 378.158 109.535C376.668 109.535 375.196 109.862 373.847 110.495C369.574 112.262 365.734 114.935 362.591 118.331C359.449 121.727 357.079 125.765 355.644 130.166C355.01 132.038 354.683 134 354.676 135.977C354.705 137.584 355.04 139.167 355.227 140.774C356.267 149.574 352.899 158.287 348.909 166.203C346.701 170.574 344.21 175.185 344.732 180.055C344.799 180.707 344.904 181.441 344.507 181.974C344.028 182.607 342.993 182.641 342.547 183.308C342.102 183.974 342.509 184.982 342.155 185.735C341.676 186.8 340.114 186.671 338.998 186.292C335.938 185.255 333.105 183.643 330.649 181.542C326.668 183.869 322.409 186.642 321.102 191.066C320.795 192.194 320.581 193.347 320.465 194.511L318.41 211.687C318.137 213.961 318.002 216.629 319.717 218.145C322.673 220.765 327.937 217.372 331.099 219.743C331.908 220.347 332.435 221.249 333.015 222.07C336.469 226.815 342.413 228.902 347.989 230.706C348.757 230.998 349.564 231.176 350.384 231.234C351.2 231.211 352.007 231.065 352.779 230.802C355.098 230.149 357.57 229.391 359.055 227.496C362.058 223.658 365.502 220.386 368.855 216.845C370.383 215.289 371.823 213.649 373.166 211.932C375.083 209.379 376.548 206.534 378.029 203.713C381.123 197.821 384.304 191.977 387.571 186.181C389.361 182.929 391.336 179.783 393.487 176.758C395.57 173.88 397.937 171.241 399.929 168.314C402.804 164.054 404.868 159.285 406.794 154.511C407.575 152.592 408.346 150.61 408.595 148.542C408.844 146.474 408.509 144.253 407.254 142.588C403.091 137.056 402.885 129.355 399.058 123.588C395.23 117.821 390.109 113.052 383.777 110.27Z" fill="#E8E8F0"/>
<path d="M270.709 126.861C270.597 126.932 270.502 127.027 270.431 127.139C270.36 127.251 270.314 127.377 270.297 127.508C270.297 127.748 270.493 127.935 270.599 128.151C270.891 128.765 270.421 129.475 269.885 129.898C269.348 130.32 268.697 130.646 268.405 131.265C268.36 131.347 268.34 131.44 268.347 131.534C268.38 131.66 268.454 131.772 268.558 131.85C268.873 132.214 269.283 132.483 269.741 132.628C270.474 132.781 271.178 132.297 271.801 131.898C272.476 131.47 273.196 131.117 273.947 130.843C274.179 130.774 274.398 130.665 274.594 130.521C274.833 130.282 274.981 129.966 275.01 129.629C275.173 128.425 274.531 127.268 273.798 126.27C272.917 125.095 271.461 126.213 270.709 126.861Z" fill="#3F3D56"/>
<path d="M197.218 269.046L147.495 243.627C147.132 243.442 146.688 243.586 146.503 243.949L133.831 268.816C133.645 269.18 133.789 269.625 134.152 269.81L183.875 295.23C184.238 295.415 184.682 295.271 184.867 294.907L197.539 270.04C197.725 269.677 197.581 269.232 197.218 269.046Z" fill="#3F3D56"/>
<path d="M192.639 269.686L149.743 247.756L138.859 269.115L181.755 291.044L192.639 269.686Z" fill="#E8E8F0"/>
<path d="M143.358 257.96C143.489 257.703 143.28 257.334 142.892 257.135C142.503 256.936 142.081 256.983 141.95 257.241C141.819 257.498 142.028 257.868 142.417 258.066C142.806 258.265 143.227 258.218 143.358 257.96Z" fill="#E6E8EC"/>
<path d="M190.267 282.004C190.483 281.582 190.138 280.974 189.497 280.646C188.856 280.318 188.162 280.395 187.946 280.818C187.731 281.24 188.076 281.848 188.717 282.176C189.358 282.503 190.052 282.427 190.267 282.004Z" fill="#E6E8EC"/>
<path d="M399.182 49.4805C398.186 53.7122 396.308 57.848 396.528 62.1901C392.549 63.3282 388.506 64.2238 384.419 64.8721C382.503 65.1743 380.289 65.3518 378.886 63.994C378.292 63.3568 377.859 62.5871 377.621 61.7486C376.103 57.253 376.611 52.1193 374.316 47.9643C373.357 46.2702 371.986 44.8463 370.33 43.8247C368.674 42.8031 366.788 42.2169 364.846 42.1205C363.342 42.0678 361.632 42.4372 360.86 43.7278C360.565 44.3609 360.337 45.0235 360.18 45.7046C359.117 48.9143 354.762 50.5024 351.893 48.7128C350.456 47.8108 349.474 46.3139 348.176 45.1912C346.528 43.7758 344.416 43.0465 342.567 41.9046C340.9 40.8779 340.1 39.8415 339.76 38.7716C339.338 41.0794 339.218 43.2001 342.567 45.2631C344.416 46.405 346.528 47.1343 348.176 48.5497C349.474 49.6628 350.437 51.1693 351.893 52.0713C354.767 53.8513 359.117 52.2728 360.18 49.0631C360.337 48.382 360.565 47.7194 360.86 47.0863C361.632 45.7957 363.342 45.4263 364.846 45.4791C366.788 45.5754 368.674 46.1616 370.33 47.1832C371.986 48.2048 373.357 49.6288 374.316 51.3229C376.611 55.4778 376.103 60.6115 377.621 65.1072C377.862 65.9525 378.303 66.7275 378.905 67.367C380.309 68.7104 382.526 68.5472 384.438 68.245C388.525 67.5967 392.569 66.7011 396.547 65.563C396.313 61.2209 398.205 57.0851 399.201 52.8534C399.969 49.3906 400.276 45.8415 400.116 42.2981C400.04 44.717 399.727 47.1227 399.182 49.4805Z" fill="black"/>
<path d="M340.047 33.8346C340.398 32.2566 340.23 30.6073 339.568 29.1327C338.965 27.866 337.254 27.0312 336.105 27.8325C334.955 28.6337 335.118 30.4233 334.835 31.8627C334.289 34.6934 331.482 36.6222 328.608 37.0732C327.262 37.2891 325.763 37.2027 324.718 36.3295C324.046 35.6843 323.551 34.8762 323.281 33.9833C322.546 31.9879 322.099 29.8972 321.955 27.7749C321.711 31.0221 322.164 34.2839 323.281 37.3419C323.551 38.2347 324.046 39.0428 324.718 39.688C325.763 40.5612 327.262 40.6476 328.608 40.4317C331.449 39.9807 334.27 38.0327 334.835 35.2212C335.108 33.7818 334.922 32.0402 336.11 31.215C337.298 30.3897 338.984 31.2486 339.573 32.5152C339.778 32.9365 339.937 33.3789 340.047 33.8346Z" fill="black"/>
</g>
<defs>
<filter id="filter0_d_325_411" x="-4" y="0" width="556" height="351" filterUnits="userSpaceOnUse" color-interpolation-filters="sRGB">
<feFlood flood-opacity="0" result="BackgroundImageFix"/>
<feColorMatrix in="SourceAlpha" type="matrix" values="0 0 0 0 0 0 0 0 0 0 0 0 0 0 0 0 0 0 127 0" result="hardAlpha"/>
<feOffset dy="4"/>
<feGaussianBlur stdDeviation="2"/>
<feComposite in2="hardAlpha" operator="out"/>
<feColorMatrix type="matrix" values="0 0 0 0 0 0 0 0 0 0 0 0 0 0 0 0 0 0 0.25 0"/>
<feBlend mode="normal" in2="BackgroundImageFix" result="effect1_dropShadow_325_411"/>
<feBlend mode="normal" in="SourceGraphic" in2="effect1_dropShadow_325_411" result="shape"/>
</filter>
<clipPath id="clip0_325_411">
<rect width="548" height="343" fill="white"/>
</clipPath>
</defs>
</svg>
