<svg width="51" height="51" viewBox="0 0 51 51" fill="none" xmlns="http://www.w3.org/2000/svg">
<path d="M46.3365 1.68896H3.66358C1.64346 1.68896 0 3.33252 0 5.35255V29.3514V32.3218V36.6872C0 38.7072 1.64346 40.3508 3.66358 40.3508H16.7987L16.2388 44.2146H13.4153V47.1851H15.8084H34.1915H36.5846V44.2146H33.7611L33.2012 40.3508H46.3363C48.3564 40.3508 49.9999 38.7072 49.9999 36.6872V32.3218V29.3514V5.35255C50.0001 3.33252 48.3566 1.68896 46.3365 1.68896ZM19.2403 44.2145L19.8 40.3507H30.1999L30.7597 44.2145H19.2403ZM47.0297 36.6872C47.0297 37.0693 46.7186 37.3802 46.3366 37.3802H32.7712H17.2291H3.66358C3.28145 37.3802 2.97051 37.0692 2.97051 36.6872V32.3218H47.0298V36.6872H47.0297ZM47.0297 29.3514H2.97042V5.35255C2.97042 4.97042 3.28145 4.65948 3.66348 4.65948H46.3365C46.7186 4.65948 47.0296 4.97051 47.0296 5.35255V29.3514H47.0297Z" fill="white"/>
<path d="M26.0001 7.5423C21.6325 7.5423 18.0791 11.0956 18.0791 15.4633C18.0791 18.4255 19.2984 21.5746 21.6055 24.5699C23.3045 26.7758 25.002 28.1409 25.0734 28.198L25.9999 28.9378L26.9265 28.198C26.998 28.141 28.6953 26.7759 30.3944 24.5699C32.7014 21.5746 33.9207 18.4255 33.9207 15.4633C33.9211 11.0956 30.3679 7.5423 26.0001 7.5423ZM25.9981 25.0388C24.3415 23.4367 21.0496 19.7174 21.0496 15.4633C21.0496 12.7336 23.2704 10.5128 26.0001 10.5128C28.7298 10.5128 30.9506 12.7336 30.9506 15.4633C30.9507 19.6995 27.6534 23.4322 25.9981 25.0388Z" fill="white"/>
<path d="M25.9999 11.4361C23.7793 11.4361 21.9727 13.2427 21.9727 15.4634C21.9727 17.684 23.7793 19.4907 25.9999 19.4907C28.2205 19.4907 30.0272 17.684 30.0272 15.4634C30.0272 13.2427 28.2205 11.4361 25.9999 11.4361ZM25.9999 16.52C25.4172 16.52 24.9432 16.0459 24.9432 15.4633C24.9432 14.8805 25.4173 14.4065 25.9999 14.4065C26.5826 14.4065 27.0567 14.8806 27.0567 15.4633C27.0567 16.046 26.5826 16.52 25.9999 16.52Z" fill="white"/>
<path d="M28.0454 34.4924H23.9541V37.4628H28.0454V34.4924Z" fill="white"/>
</svg>
